<svg width="135" height="100" viewBox="0 0 135 100" fill="none" xmlns="http://www.w3.org/2000/svg">
<path d="M47.2601 29.3242C55.4494 29.1631 63.3407 25.7355 69.9679 21.0168C99.598 -3.64234 142.265 32.1452 107.194 62.7845C89.9754 78.7149 73.6881 68.6011 54.5663 67.7153C15.888 67.5355 16.9885 40.9411 22.2735 33.6832C27.6472 26.5729 39.3688 29.6677 47.2601 29.3242Z" fill="#E3E305"/>
<path opacity="0.9" d="M47.2601 29.3242C55.4494 29.1631 63.3407 25.7355 69.9679 21.0168C99.598 -3.64234 142.265 32.1452 107.194 62.7845C89.9754 78.7149 73.6881 68.6011 54.5663 67.7153C15.888 67.5355 16.9885 40.9411 22.2735 33.6832C27.6472 26.5729 39.3688 29.6677 47.2601 29.3242Z" fill="white"/>
<path d="M67.5763 100C96.3186 100 119.619 98.6396 119.619 96.9615C119.619 95.2834 96.3186 93.9231 67.5763 93.9231C38.834 93.9231 15.5337 95.2834 15.5337 96.9615C15.5337 98.6396 38.834 100 67.5763 100Z" fill="#F5F5F5"/>
<path d="M18.6661 81.7533H84.3978L89.1218 40.8605H23.3928L18.6661 81.7533Z" fill="#E3E305"/>
<path opacity="0.4" d="M18.6661 81.7533H84.3978L89.1218 40.8605H23.3928L18.6661 81.7533Z" fill="white"/>
<path d="M97.3084 83.2859H31.5768L23.3928 40.8605H89.1218L97.3084 83.2859Z" fill="#E3E305"/>
<path opacity="0.6" d="M97.3084 83.2859H31.5768L23.3928 40.8605H89.1218L97.3084 83.2859Z" fill="white"/>
<path d="M94.7907 81.0097H33.2141L26.6031 46.7307H88.1797L94.7907 81.0097Z" fill="white"/>
<g opacity="0.5">
<path opacity="0.5" d="M38.0079 55.0435H31.5687L30.3259 48.6016H36.7652L38.0079 55.0435Z" fill="#E3E305"/>
<path opacity="0.5" d="M86.4216 55.0435H79.9797L78.7396 48.6016H85.1789L86.4216 55.0435Z" fill="#E3E305"/>
<path opacity="0.5" d="M78.3504 55.0435H71.9112L70.6684 48.6016H77.1103L78.3504 55.0435Z" fill="#E3E305"/>
<path opacity="0.5" d="M70.2819 55.0435H63.8427L62.5999 48.6016H69.0419L70.2819 55.0435Z" fill="#E3E305"/>
<path opacity="0.5" d="M62.2134 55.0435H55.7742L54.5314 48.6016H60.9707L62.2134 55.0435Z" fill="#E3E305"/>
<path opacity="0.5" d="M54.1449 55.0435H47.7057L46.463 48.6016H52.9022L54.1449 55.0435Z" fill="#E3E305"/>
<path opacity="0.5" d="M46.0764 55.0435H39.6372L38.3944 48.6016H44.8337L46.0764 55.0435Z" fill="#E3E305"/>
<path opacity="0.5" d="M39.5567 63.0744H33.1174L31.8747 56.6352H38.3139L39.5567 63.0744Z" fill="#E3E305"/>
<path opacity="0.5" d="M87.9704 63.0744H81.5311L80.2884 56.6352H86.7276L87.9704 63.0744Z" fill="#E3E305"/>
<path opacity="0.5" d="M79.9019 63.0744H73.4626L72.2199 56.6352H78.6591L79.9019 63.0744Z" fill="#E3E305"/>
<path opacity="0.5" d="M71.8333 63.0744H65.3914L64.1514 56.6352H70.5906L71.8333 63.0744Z" fill="#E3E305"/>
<path opacity="0.5" d="M63.7622 63.0744H57.3229L56.0802 56.6352H62.5221L63.7622 63.0744Z" fill="#E3E305"/>
<path opacity="0.5" d="M55.6937 63.0744H49.2544L48.0117 56.6352H54.4509L55.6937 63.0744Z" fill="#E3E305"/>
<path opacity="0.5" d="M47.6252 63.0744H41.1859L39.9432 56.6352H46.3824L47.6252 63.0744Z" fill="#E3E305"/>
<path opacity="0.5" d="M41.1054 71.1053H34.6662L33.4234 64.6661H39.8627L41.1054 71.1053Z" fill="#E3E305"/>
<path opacity="0.5" d="M89.5191 71.1053H83.0799L81.8371 64.6661H88.2763L89.5191 71.1053Z" fill="#E3E305"/>
<path opacity="0.5" d="M81.4506 71.1053H75.0114L73.7686 64.6661H80.2078L81.4506 71.1053Z" fill="#E3E305"/>
<path opacity="0.5" d="M73.3821 71.1053H66.9429L65.7001 64.6661H72.1394L73.3821 71.1053Z" fill="#E3E305"/>
<path opacity="0.5" d="M65.3136 71.1053H58.8717L57.6316 64.6661H64.0709L65.3136 71.1053Z" fill="#E3E305"/>
<path opacity="0.5" d="M57.2424 71.1053H50.8032L49.5604 64.6661H56.0023L57.2424 71.1053Z" fill="#E3E305"/>
<path opacity="0.5" d="M49.1739 71.1053H42.7347L41.4919 64.6661H47.9312L49.1739 71.1053Z" fill="#E3E305"/>
<path opacity="0.5" d="M42.6542 79.1389H36.2149L34.9722 72.697H41.4141L42.6542 79.1389Z" fill="#E3E305"/>
<path opacity="0.5" d="M91.0678 79.1389H84.6286L83.3859 72.697H89.8251L91.0678 79.1389Z" fill="#E3E305"/>
<path opacity="0.5" d="M82.9993 79.1389H76.5601L75.3174 72.697H81.7566L82.9993 79.1389Z" fill="#E3E305"/>
<path opacity="0.5" d="M74.9308 79.1389H68.4916L67.2489 72.697H73.6881L74.9308 79.1389Z" fill="#E3E305"/>
<path opacity="0.5" d="M66.8623 79.1389H60.4231L59.1804 72.697H65.6196L66.8623 79.1389Z" fill="#E3E305"/>
<path opacity="0.5" d="M58.7938 79.1389H52.3519L51.1119 72.697H57.5511L58.7938 79.1389Z" fill="#E3E305"/>
<path opacity="0.5" d="M50.7253 79.1389H44.2834L43.0434 72.697H49.4826L50.7253 79.1389Z" fill="#E3E305"/>
</g>
<path d="M31.4989 43.7728L31.4157 43.346C32.1753 43.346 32.5994 42.208 32.339 40.8605C32.0787 39.5131 31.2171 38.3723 30.4602 38.3723C29.7032 38.3723 29.2765 39.5131 29.5341 40.8605H29.11C28.7933 39.2259 29.3516 37.9482 30.3769 37.9482C31.4023 37.9482 32.4545 39.2259 32.7685 40.8605C33.0826 42.4952 32.5243 43.7728 31.4989 43.7728Z" fill="#263238"/>
<path d="M37.8549 43.7728L37.7717 43.346C38.5313 43.346 38.9554 42.208 38.6951 40.8605C38.4347 39.5131 37.5731 38.3723 36.8162 38.3723C36.0592 38.3723 35.6325 39.5131 35.8901 40.8605H35.4661C35.1493 39.2259 35.7076 37.9482 36.733 37.9482C37.7583 37.9482 38.8105 39.2259 39.1245 40.8605C39.4386 42.4952 38.8803 43.7728 37.8549 43.7728Z" fill="#263238"/>
<path d="M44.2244 43.7728L44.1412 43.346C44.9008 43.346 45.3249 42.208 45.0645 40.8605C44.8042 39.5131 43.9425 38.3723 43.1856 38.3723C42.4287 38.3723 41.9992 39.5131 42.2596 40.8605H41.8087C41.4919 39.2259 42.0502 37.9482 43.0756 37.9482C44.1009 37.9482 45.1531 39.2259 45.4671 40.8605C45.7812 42.4952 45.2363 43.7728 44.2244 43.7728Z" fill="#263238"/>
<path d="M50.5643 43.7728L50.4838 43.346C51.2434 43.346 51.6675 42.208 51.4071 40.8605C51.1468 39.5131 50.2851 38.3723 49.5282 38.3723C48.7713 38.3723 48.3445 39.5131 48.6049 40.8605H48.1781C47.8641 39.2259 48.4224 37.9482 49.4477 37.9482C50.473 37.9482 51.5225 39.2259 51.8393 40.8605C52.156 42.4952 51.5923 43.7728 50.5643 43.7728Z" fill="#263238"/>
<path d="M56.9203 43.7728L56.8398 43.346C57.5994 43.346 58.0235 42.208 57.7631 40.8605C57.5028 39.5131 56.6412 38.3723 55.8842 38.3723C55.1273 38.3723 54.7005 39.5131 54.9609 40.8605H54.5341C54.2201 39.2259 54.7784 37.9482 55.8037 37.9482C56.8291 37.9482 57.8786 39.2259 58.1953 40.8605C58.512 42.4952 57.9483 43.7728 56.9203 43.7728Z" fill="#263238"/>
<path d="M63.2817 43.7728L63.2012 43.346C63.9608 43.346 64.3849 42.208 64.1245 40.8605C63.8642 39.5131 63.0026 38.3723 62.2456 38.3723C61.4887 38.3723 61.0619 39.5131 61.3223 40.8605H60.8955C60.5815 39.2259 61.1371 37.9482 62.1651 37.9482C63.1931 37.9482 64.2399 39.2259 64.5567 40.8605C64.8734 42.4952 64.3044 43.7728 63.2817 43.7728Z" fill="#263238"/>
<path d="M69.6324 43.7728L69.5518 43.346C70.3115 43.346 70.7355 42.208 70.4752 40.8605C70.2148 39.5131 69.3532 38.3723 68.5963 38.3723C67.8394 38.3723 67.4126 39.5131 67.673 40.8605H67.2462C66.9321 39.2259 67.4878 37.9482 68.5158 37.9482C69.5438 37.9482 70.5906 39.2259 70.9073 40.8605C71.2241 42.4952 70.6604 43.7728 69.6324 43.7728Z" fill="#263238"/>
<path d="M75.9884 43.7728L75.9079 43.346C76.6675 43.346 77.0916 42.208 76.8312 40.8605C76.5708 39.5131 75.7092 38.3723 74.9523 38.3723C74.1954 38.3723 73.7686 39.5131 74.029 40.8605H73.6022C73.2882 39.2259 73.8438 37.9482 74.8718 37.9482C75.8998 37.9482 76.9466 39.2259 77.2633 40.8605C77.5801 42.4952 77.0137 43.7728 75.9884 43.7728Z" fill="#263238"/>
<path d="M82.3391 43.7728L82.2585 43.346C83.0181 43.346 83.4422 42.208 83.1819 40.8605C82.9215 39.5131 82.0599 38.3723 81.303 38.3723C80.5461 38.3723 80.1193 39.5131 80.3796 40.8605H79.9529C79.6388 39.2259 80.1944 37.9482 81.2225 37.9482C82.2505 37.9482 83.2973 39.2259 83.6113 40.8605C83.9254 42.4952 83.3698 43.7728 82.3391 43.7728Z" fill="#263238"/>
<path d="M54.8777 54.1363H32.2988L31.056 47.697H53.6349L54.8777 54.1363Z" fill="#F66800"/>
<path d="M64.5003 62.1699H58.0584L56.8183 55.728H63.2576L64.5003 62.1699Z" fill="#E3E305"/>
<path d="M84.6474 70.4155L84.2985 70.1121C83.5823 69.485 82.7852 68.9568 81.9284 68.5419L82.1512 67.8843C82.9492 68.2705 83.7003 68.7469 84.3897 69.3042C85.5786 67.5413 87.1353 66.0569 88.9528 64.9532L89.4332 65.6082C87.5831 66.7323 86.0163 68.2669 84.8541 70.0934L84.6474 70.4155Z" fill="#E3E305"/>
<path d="M62.1383 56.7935H61.5558L60.5815 58.5569L58.9307 56.7935H58.3483L60.3667 58.9488L59.1777 61.1015H59.7628L60.7345 59.3407L62.3852 61.1015H62.9704L60.9492 58.9488L62.1383 56.7935Z" fill="white"/>
<path d="M74.0746 72.2192L75.1483 77.8049H69.5653L68.4916 72.2192H74.0773H74.0746ZM74.4235 71.7924H67.9816L69.2244 78.2343H75.6663L74.4262 71.7924H74.4235Z" fill="#E3E305"/>
<path d="M57.9752 70.2008H43.4675L42.2247 63.7616H56.7324L57.9752 70.2008Z" fill="#263238"/>
<path d="M47.9822 66.3303C48.0208 66.4799 48.0239 66.6364 47.9913 66.7874C47.9586 66.9385 47.891 67.0797 47.794 67.2C47.697 67.3202 47.5732 67.4161 47.4325 67.4799C47.2917 67.5438 47.1381 67.5738 46.9837 67.5676C46.6351 67.5547 46.3008 67.426 46.0335 67.2019C45.7662 66.9779 45.5811 66.6712 45.5074 66.3303C45.4693 66.1807 45.4667 66.0243 45.4996 65.8736C45.5325 65.7228 45.6001 65.5818 45.697 65.4617C45.7939 65.3416 45.9175 65.2457 46.0579 65.1817C46.1983 65.1177 46.3517 65.0873 46.5059 65.0929C46.8543 65.1063 47.1884 65.2352 47.4556 65.4591C47.7228 65.6831 47.9081 65.9896 47.9822 66.3303Z" fill="white"/>
<path d="M48.2801 67.5005C48.1435 67.6903 47.9625 67.8436 47.7528 67.9471C47.5432 68.0505 47.3113 68.1009 47.0776 68.0937C46.5448 68.0809 46.0359 67.8704 45.6497 67.5032C45.4107 67.6324 45.2186 67.8339 45.101 68.0788C44.9834 68.3237 44.9462 68.5995 44.9947 68.8668H49.4611C49.3803 68.5646 49.2321 68.2847 49.0275 68.048C48.823 67.8114 48.5674 67.6242 48.2801 67.5005Z" fill="white"/>
<path d="M55.5568 66.5799H50.618L50.4811 65.8686H55.4199L55.5568 66.5799Z" fill="white"/>
<path d="M54.1959 68.0911H50.9106L50.7737 67.3798H54.059L54.1959 68.0911Z" fill="white"/>
<path d="M80.1273 48.2982C81.3996 48.2982 83.2007 48.4834 84.5615 49.3718C84.8088 49.5176 85.0243 49.7115 85.1953 49.942C85.3664 50.1725 85.4895 50.435 85.5573 50.7139C85.7962 51.7688 85.2352 52.9203 84.6152 53.5457C83.6355 54.5334 82.1109 55.1561 80.3206 55.2796C80.1166 55.2957 79.9072 55.3038 79.7006 55.3038C78.4399 55.2927 77.1925 55.0451 76.0233 54.5737C74.8718 54.1147 73.6505 53.5 73.307 52.3029C73.2173 52.0271 73.1898 51.7348 73.2264 51.4471C73.2631 51.1593 73.363 50.8833 73.519 50.6387C73.7218 50.3284 73.9902 50.0663 74.3055 49.8711C75.7926 48.9513 77.4873 48.4205 79.2335 48.3277C79.5315 48.3089 79.8321 48.2982 80.1273 48.2982ZM80.0468 47.8848C79.7274 47.8848 79.4187 47.8848 79.1288 47.917C77.322 48.0121 75.5682 48.5604 74.029 49.5114C73.6751 49.7317 73.3737 50.0267 73.1459 50.3757C72.9639 50.6659 72.8477 50.9924 72.8054 51.3323C72.7632 51.6723 72.7961 52.0173 72.9016 52.3432C73.3043 53.7335 74.6812 54.4556 75.932 54.9521C77.1547 55.4463 78.4597 55.7049 79.7784 55.7144C79.9958 55.7144 80.2105 55.7144 80.4253 55.693C82.127 55.5695 83.8234 54.9897 84.94 53.8624C86.0566 52.7351 86.7679 50.3435 84.7414 49.031C83.3751 48.1479 81.5875 47.8848 80.0441 47.8848H80.0468Z" fill="#263238"/>
<path d="M104.354 95.0612L106.276 94.5512L105.339 90.0311L103.418 90.5438L104.354 95.0612Z" fill="#B55B52"/>
<path d="M106.338 94.1969L104.215 94.8948C104.178 94.9048 104.148 94.9288 104.129 94.9615C104.11 94.9942 104.105 95.033 104.115 95.0693L104.566 96.7844C104.595 96.8729 104.657 96.9465 104.739 96.9893C104.822 97.032 104.918 97.0404 105.007 97.0126C105.742 96.7442 106.08 96.5965 107.014 96.2905C107.589 96.1 108.979 95.6732 109.771 95.4128C110.563 95.1525 110.286 94.3768 109.927 94.4143C108.316 94.5915 107.374 94.4492 106.706 94.2077C106.588 94.162 106.458 94.1582 106.338 94.1969Z" fill="#263238"/>
<path opacity="0.2" d="M103.418 90.5438L105.339 90.0311L105.822 92.361L103.898 92.8736L103.418 90.5438Z" fill="black"/>
<path d="M98.4895 44.4815C98.4895 44.4815 101.174 60.6802 101.979 66.3303C102.851 72.5173 106.118 91.129 106.118 91.129L102.897 92.3476C102.897 92.3476 97.7567 74.0499 96.3368 68.0348C94.7934 61.5043 91.3953 44.4815 91.3953 44.4815H98.4895Z" fill="#263238"/>
<path opacity="0.3" d="M94.1761 51.1247C95.5503 54.5577 95.706 60.393 95.1477 62.7845C94.3049 58.8576 93.3386 54.1604 92.5951 50.5073C92.8608 49.5706 93.344 49.0364 94.1761 51.1247Z" fill="black"/>
<path d="M102.752 92.8039L106.491 91.6819L106.383 90.152L101.933 91.4538L102.752 92.8039Z" fill="#263238"/>
<path d="M107.116 94.307C106.941 94.3582 106.761 94.3906 106.579 94.4036C106.571 94.4043 106.562 94.4026 106.554 94.3989C106.546 94.3951 106.539 94.3893 106.534 94.3821C106.529 94.3744 106.527 94.3656 106.527 94.3566C106.527 94.3477 106.529 94.3389 106.534 94.3311C106.579 94.2694 106.995 93.7272 107.256 93.7406C107.285 93.7428 107.314 93.7522 107.339 93.7682C107.363 93.7841 107.384 93.806 107.398 93.8319C107.427 93.8697 107.445 93.9151 107.449 93.9626C107.453 94.0101 107.444 94.0578 107.422 94.1003C107.348 94.2032 107.239 94.2764 107.116 94.307ZM106.689 94.307C107.052 94.2613 107.296 94.1701 107.355 94.0546C107.367 94.0273 107.371 93.9973 107.368 93.9676C107.365 93.938 107.354 93.9097 107.336 93.8855C107.33 93.8726 107.32 93.8617 107.307 93.8537C107.295 93.8457 107.281 93.841 107.267 93.8399C107.127 93.8265 106.864 94.0895 106.689 94.3016V94.307Z" fill="#E3E305"/>
<path d="M106.601 94.4009C106.594 94.4036 106.586 94.4036 106.579 94.4009C106.572 94.3997 106.565 94.3966 106.559 94.3919C106.552 94.3872 106.548 94.3811 106.545 94.374C106.545 94.3499 106.314 93.8211 106.443 93.5688C106.46 93.5373 106.483 93.5099 106.512 93.4885C106.541 93.4672 106.574 93.4524 106.609 93.4453C106.647 93.4341 106.688 93.4362 106.725 93.4513C106.762 93.4665 106.793 93.4937 106.813 93.5285C106.926 93.7191 106.773 94.2076 106.622 94.3794C106.614 94.3955 106.609 94.4009 106.601 94.4009ZM106.601 93.55C106.566 93.5624 106.538 93.5873 106.52 93.6198C106.475 93.8359 106.501 94.0607 106.593 94.2613C106.724 94.0608 106.772 93.8174 106.727 93.5822C106.714 93.558 106.689 93.5312 106.622 93.5446L106.601 93.55Z" fill="#E3E305"/>
<path d="M98.0815 27.8049C98.1593 27.9311 98.2667 28.1082 98.366 28.2612L98.672 28.7444C98.884 29.0638 99.0934 29.3832 99.3162 29.6972C99.7537 30.3226 100.215 30.9293 100.693 31.5064C101.159 32.0706 101.663 32.6024 102.202 33.098C102.688 33.5528 103.229 33.9459 103.812 34.2683L103.388 34.1475C103.804 34.2329 104.23 34.2573 104.652 34.22C104.883 34.1985 105.119 34.169 105.361 34.1261C105.602 34.0831 105.847 34.0241 106.094 33.957C106.602 33.8185 107.101 33.6491 107.589 33.4497C107.838 33.3477 108.088 33.243 108.338 33.1302C108.587 33.0175 108.842 32.8914 109.06 32.7894L109.132 32.7545C109.34 32.6548 109.58 32.6418 109.797 32.7183C110.015 32.7948 110.194 32.9545 110.294 33.1625C110.369 33.3228 110.395 33.502 110.366 33.6768C110.338 33.8515 110.258 34.0137 110.136 34.1422C109.892 34.3945 109.677 34.5958 109.435 34.8078C109.194 35.0199 108.952 35.2078 108.697 35.3957C108.178 35.7748 107.629 36.1105 107.055 36.3995C106.449 36.704 105.81 36.939 105.151 37.1001C104.798 37.1814 104.439 37.2396 104.078 37.2745C103.698 37.3067 103.317 37.3067 102.937 37.2745C102.829 37.2639 102.723 37.2377 102.623 37.1967L102.516 37.1511C101.629 36.7671 100.8 36.2602 100.054 35.6453C99.3472 35.075 98.6891 34.4465 98.0868 33.7664C97.4986 33.115 96.9483 32.4303 96.4388 31.7157C96.1865 31.3578 95.9431 30.9999 95.7087 30.6421C95.5933 30.4569 95.4779 30.2743 95.3651 30.0838C95.2524 29.8932 95.1504 29.716 95.0269 29.4852C94.7984 29.0833 94.7389 28.6072 94.8615 28.1614C94.984 27.7157 95.2786 27.3369 95.6805 27.1084C96.0824 26.8799 96.5585 26.8204 97.0043 26.9429C97.45 27.0655 97.8288 27.3601 98.0573 27.762L98.0815 27.8049Z" fill="#263238"/>
<path opacity="0.3" d="M99.7349 32.7142C98.6881 30.5668 96.9031 30.6903 96.1838 31.3533L96.3878 31.6512C96.875 32.3419 97.4001 33.005 97.9607 33.6375C98.5347 34.2877 99.1555 34.8951 99.8181 35.4546C100.027 35.6264 100.245 35.7955 100.465 35.9566C100.435 34.8385 100.187 33.7371 99.7349 32.7142Z" fill="black"/>
<path d="M109.655 32.4779L110.998 31.3586L111.803 33.0953C111.803 33.0953 109.803 34.5259 109.344 34.0213L109.29 33.3744C109.275 33.2067 109.301 33.0378 109.364 32.8818C109.428 32.7259 109.527 32.5874 109.655 32.4779Z" fill="#B55B52"/>
<path d="M112.788 31.5708L113.209 32.9129L111.792 33.0873L110.992 31.3507L112.788 31.5708Z" fill="#B55B52"/>
<path d="M87.5409 94.9967H89.5298L89.7875 90.3881H87.7986L87.5409 94.9967Z" fill="#B55B52"/>
<path d="M89.6345 94.766H87.3986C87.38 94.7653 87.3613 94.7682 87.3438 94.7747C87.3262 94.7812 87.3102 94.7911 87.2964 94.8038C87.2827 94.8165 87.2717 94.8318 87.2639 94.8488C87.2561 94.8658 87.2517 94.8842 87.251 94.9029L87.141 96.6717C87.141 96.7648 87.1775 96.8541 87.2428 96.9204C87.3081 96.9867 87.3969 97.0246 87.4899 97.026C88.2683 97.0126 88.6414 96.967 89.6238 96.967C90.2277 96.967 91.8946 97.0287 92.7293 97.0287C93.5641 97.0287 93.5346 96.202 93.1883 96.1268C91.5993 95.794 90.5391 95.3216 89.9674 94.8894C89.8736 94.8117 89.7562 94.7682 89.6345 94.766Z" fill="#263238"/>
<path opacity="0.2" d="M87.7986 90.3907H89.7875L89.6533 92.7662H87.6644L87.7986 90.3907Z" fill="black"/>
<path d="M94.6028 44.4815C94.6028 44.4815 94.431 61.77 94.1089 67.4684C93.7546 73.7063 90.5068 92.1919 90.5068 92.1919H86.8618C86.8618 92.1919 88.4508 74.2083 88.2307 68.0348C87.9918 61.3244 87.8469 44.4815 87.8469 44.4815H94.6028Z" fill="#263238"/>
<path d="M86.5692 92.1919H91.0142L91.2316 90.8096L86.3813 91.0243L86.5692 92.1919Z" fill="#263238"/>
<path d="M90.3377 95.1122C90.1568 95.1081 89.9769 95.0847 89.8009 95.0424C89.7919 95.0407 89.7837 95.0363 89.7772 95.0299C89.7708 95.0235 89.7664 95.0152 89.7647 95.0063C89.7629 94.9973 89.7639 94.988 89.7675 94.9796C89.7711 94.9713 89.7771 94.9641 89.7848 94.9592C89.8492 94.9136 90.4102 94.5297 90.6545 94.6264C90.6819 94.6369 90.7061 94.6542 90.7249 94.6768C90.7437 94.6994 90.7564 94.7264 90.7618 94.7552C90.7744 94.7986 90.7759 94.8445 90.766 94.8886C90.7562 94.9327 90.7353 94.9736 90.7055 95.0075C90.5999 95.0864 90.469 95.1236 90.3377 95.1122ZM89.9351 94.9753C90.2921 95.0451 90.5551 95.0344 90.6464 94.9431C90.6667 94.9211 90.6806 94.894 90.6867 94.8647C90.6929 94.8354 90.691 94.805 90.6813 94.7767C90.6791 94.7621 90.673 94.7483 90.6635 94.7369C90.654 94.7256 90.6416 94.717 90.6276 94.7123C90.4988 94.6613 90.1659 94.8277 89.9351 94.9753Z" fill="#E3E305"/>
<path d="M89.8197 95.0424C89.8128 95.0451 89.8051 95.0451 89.7982 95.0424C89.7912 95.039 89.7851 95.0336 89.7809 95.027C89.7766 95.0204 89.7743 95.0127 89.7741 95.0048C89.7741 94.9807 89.7258 94.409 89.9271 94.2157C89.9528 94.191 89.9838 94.1724 90.0177 94.1612C90.0516 94.1501 90.0876 94.1467 90.123 94.1513C90.1626 94.1526 90.2007 94.1671 90.2313 94.1923C90.2619 94.2175 90.2833 94.2522 90.2921 94.2908C90.3377 94.5083 90.0398 94.9243 89.8439 95.0424C89.836 95.0449 89.8276 95.0449 89.8197 95.0424ZM90.0881 94.2372C90.051 94.2371 90.0154 94.2516 89.9888 94.2774C89.8783 94.4681 89.8322 94.6893 89.8573 94.9082C90.0318 94.7633 90.2277 94.4465 90.1982 94.3043C90.1982 94.2774 90.1767 94.2452 90.1096 94.2372H90.0881Z" fill="#E3E305"/>
<path d="M97.652 28.3149C97.5517 27.9793 97.3621 27.6772 97.1035 27.4408C96.845 27.2044 96.5271 27.0427 96.1838 26.9728C95.693 26.8568 95.1955 26.7717 94.6941 26.7178C93.1877 26.6319 91.6777 26.6319 90.1713 26.7178C89.3822 26.7554 88.577 26.8521 87.9355 26.946H87.9113C87.7426 26.9697 87.5805 27.0272 87.4345 27.1149C87.2885 27.2025 87.1616 27.3187 87.0614 27.4565C86.9613 27.5942 86.8898 27.7507 86.8514 27.9166C86.8129 28.0825 86.8083 28.2545 86.8376 28.4223C87.3431 31.0919 87.674 33.7916 87.8281 36.5042C87.9838 40.4418 87.7717 43.5339 87.8469 44.4841H98.4895C99.1363 34.8722 98.3016 30.5052 97.652 28.3149Z" fill="#E6E6E6"/>
<path d="M90.4719 26.5406C91.3094 29.9388 92.0824 38.5494 92.069 45.2812H87.5704C87.4899 44.2774 87.7154 41.0189 87.5516 36.8665C87.3904 34.0119 87.0452 31.1707 86.5182 28.3605C86.4876 28.1844 86.4925 28.0039 86.5326 27.8297C86.5727 27.6555 86.6472 27.4911 86.7517 27.3461C86.8562 27.201 86.9886 27.0784 87.1412 26.9852C87.2938 26.8921 87.4634 26.8304 87.6402 26.8037H87.6643C88.3408 26.7044 89.1889 26.6024 90.021 26.5621L90.4719 26.5406Z" fill="#263238"/>
<path d="M98.1996 28.3632C98.0851 27.9922 97.8766 27.6572 97.5944 27.3905C97.3123 27.1238 96.9659 26.9347 96.5891 26.8413C95.8778 26.7295 95.161 26.656 94.4418 26.6212C95.2926 29.5738 96.9622 38.5683 96.4656 45.2813H99.3054C99.9791 35.2078 98.833 30.2045 98.1996 28.3632Z" fill="#263238"/>
<path d="M114.788 37.6691L93.6124 46.7307L91.0678 40.8149L112.246 31.7532L114.788 37.6691Z" fill="#E3E305"/>
<path d="M96.9166 41.1075C97.0129 41.3324 97.0403 41.5808 96.9955 41.8213C96.9507 42.0618 96.8356 42.2836 96.6647 42.4587C96.4939 42.6338 96.275 42.7543 96.0357 42.8051C95.7964 42.8558 95.5474 42.8344 95.3202 42.7437C95.093 42.653 94.8978 42.4969 94.7592 42.2953C94.6207 42.0937 94.545 41.8555 94.5418 41.6109C94.5386 41.3663 94.6079 41.1262 94.7411 40.921C94.8743 40.7158 95.0653 40.5546 95.29 40.4579C95.4394 40.3936 95.6001 40.3594 95.7627 40.3573C95.9254 40.3551 96.0869 40.3851 96.238 40.4454C96.3891 40.5058 96.5268 40.5953 96.6432 40.7089C96.7596 40.8225 96.8525 40.958 96.9166 41.1075Z" fill="white"/>
<path d="M97.4507 42.1543C97.3719 42.3897 97.2442 42.6057 97.0761 42.7883C96.9079 42.9709 96.7031 43.1158 96.475 43.2136C96.2469 43.3115 96.0007 43.36 95.7525 43.356C95.5043 43.352 95.2598 43.2955 95.035 43.1904C94.8444 43.4068 94.7156 43.6705 94.6617 43.9538C94.6079 44.2371 94.6311 44.5296 94.729 44.8009L98.8357 43.0454C98.7064 42.786 98.5095 42.5663 98.2657 42.4094C98.0219 42.2526 97.7404 42.1644 97.4507 42.1543Z" fill="white"/>
<path d="M111.776 35.0225L99.3994 40.3183L99.1202 39.6634L111.497 34.3676L111.776 35.0225Z" fill="white"/>
<path d="M110.855 37.0598L99.9979 41.7061L99.7161 41.0511L110.573 36.4049L110.855 37.0598Z" fill="white"/>
<path opacity="0.3" d="M88.9608 31.807C88.8856 29.5496 87.2188 28.688 86.7491 29.2946C86.7284 29.3192 86.7095 29.3452 86.6927 29.3725C86.9853 31.1118 87.3422 33.506 87.4979 35.8654C88.2897 35.4091 89.0306 33.9516 88.9608 31.807Z" fill="black"/>
<path d="M94.4794 26.7125C93.1641 26.4011 92.9333 25.5878 93.0219 24.694C93.0427 24.4701 93.0777 24.2478 93.1266 24.0284L91.4785 22.6594L90.268 21.6556C90.6035 23.1131 90.9819 25.7677 89.9995 26.7393C89.9995 26.7393 90.8048 28.0814 93.0675 27.9633C94.9544 27.8586 94.4794 26.7125 94.4794 26.7125Z" fill="#B55B52"/>
<path d="M92.1629 29.1632C92.3184 28.7159 92.5715 28.3088 92.9038 27.9714C91.8935 27.6399 90.9745 27.0775 90.2196 26.3287L89.5298 26.5971C89.5298 26.5971 89.7741 28.3499 92.1629 29.1632Z" fill="white"/>
<path d="M94.0043 28.8624C93.7055 28.4899 93.3302 28.186 92.9038 27.9713C93.5667 27.7834 93.8244 26.4387 93.8244 26.4387L94.4713 26.5729C94.4713 26.5729 95.6657 28.3256 94.0043 28.8624Z" fill="white"/>
<path opacity="0.2" d="M93.1266 24.0284C93.0777 24.2479 93.0427 24.4702 93.0219 24.6941C92.4072 24.5706 91.5859 23.9157 91.5 23.2876C91.4698 23.0796 91.4626 22.869 91.4785 22.6595L93.1266 24.0284Z" fill="black"/>
<path d="M93.8942 16.8698C94.7236 16.7194 95.6899 17.5891 95.2363 19.3553C94.7826 21.1214 92.6273 17.0979 93.8942 16.8698Z" fill="#263238"/>
<path d="M89.7687 19.5593C90.1901 21.4946 90.3377 22.6461 91.4812 23.5291C91.8496 23.8198 92.2905 24.0042 92.7561 24.0625C93.2217 24.1207 93.6944 24.0505 94.1231 23.8596C94.5517 23.6686 94.92 23.3641 95.1882 22.9789C95.4563 22.5938 95.614 22.1427 95.6443 21.6744C95.7946 19.8733 95.0833 17.0121 93.046 16.4645C92.6084 16.334 92.1441 16.321 91.6998 16.4267C91.2555 16.5324 90.8468 16.7531 90.5148 17.0666C90.1827 17.3802 89.939 17.7756 89.808 18.2131C89.6771 18.6506 89.6635 19.1149 89.7687 19.5593Z" fill="#B55B52"/>
<path d="M90.5471 21.6556C90.8316 20.9846 91.0839 19.1164 90.8531 18.3407C91.7791 18.3112 93.7251 18.1394 94.5357 17.2375C95.7811 15.8525 94.1385 14.2152 92.0717 15.5197C90.7296 16.3598 87.8334 16.1934 88.3139 17.1302C86.902 18.6843 88.4884 20.4397 90.5471 21.6556Z" fill="#263238"/>
<path d="M88.3112 17.1999C88.3015 17.1998 88.2919 17.1976 88.2831 17.1934C88.2743 17.1893 88.2665 17.1832 88.2602 17.1757C88.0885 16.9637 88.0348 16.7865 88.0938 16.6389C88.2361 16.2846 88.9742 16.188 89.8251 16.0806C90.6303 15.9786 91.5215 15.8632 91.806 15.5008C91.8188 15.4891 91.8356 15.4827 91.853 15.4827C91.8703 15.4827 91.8871 15.4891 91.8999 15.5008C91.9063 15.5069 91.9115 15.5141 91.915 15.5222C91.9185 15.5303 91.9203 15.539 91.9203 15.5478C91.9203 15.5566 91.9185 15.5653 91.915 15.5734C91.9115 15.5815 91.9063 15.5888 91.8999 15.5948C91.5805 16.0001 90.6921 16.1128 89.8331 16.2229C89.0896 16.3195 88.322 16.4161 88.2227 16.7006C88.1824 16.8026 88.2227 16.9395 88.3649 17.1086C88.3772 17.1212 88.3841 17.138 88.3841 17.1556C88.3841 17.1732 88.3772 17.19 88.3649 17.2026C88.3473 17.2079 88.3283 17.2069 88.3112 17.1999Z" fill="#263238"/>
<path d="M89.4708 21.1214C89.7018 21.4828 90.0508 21.7531 90.4585 21.8864C90.9766 22.0421 91.1537 21.5643 90.9444 21.0597C90.7538 20.6034 90.2545 19.9726 89.7687 20.0397C89.2829 20.1068 89.1782 20.6678 89.4708 21.1214Z" fill="#B55B52"/>
<path d="M92.5387 19.7525C92.5629 19.9109 92.6676 20.0209 92.7723 20.0209C92.8769 20.0209 92.9387 19.8706 92.9145 19.7123C92.8904 19.5539 92.7857 19.4438 92.681 19.4438C92.5763 19.4438 92.5146 19.5942 92.5387 19.7525Z" fill="#263238"/>
<path d="M94.3398 19.5378C94.3639 19.6962 94.4686 19.8062 94.5733 19.8062C94.678 19.8062 94.7424 19.6532 94.7156 19.4949C94.6887 19.3365 94.5867 19.2264 94.4847 19.2264C94.3827 19.2264 94.3156 19.3794 94.3398 19.5378Z" fill="#263238"/>
<path d="M94.0633 19.6854C94.3296 20.1489 94.6564 20.575 95.035 20.9523C94.936 21.0429 94.8184 21.1105 94.6903 21.1504C94.5623 21.1903 94.427 21.2015 94.2942 21.1832L94.0633 19.6854Z" fill="#A02724"/>
<path d="M93.709 21.6905C93.5228 21.693 93.3381 21.6576 93.166 21.5866C92.9939 21.5155 92.838 21.4102 92.7078 21.2771C92.7038 21.2725 92.7006 21.2672 92.6987 21.2614C92.6967 21.2556 92.6958 21.2495 92.6962 21.2434C92.6966 21.2373 92.6982 21.2313 92.7008 21.2258C92.7035 21.2203 92.7073 21.2154 92.7118 21.2113C92.7164 21.2073 92.7218 21.2042 92.7275 21.2022C92.7333 21.2002 92.7394 21.1994 92.7456 21.1997C92.7517 21.2001 92.7576 21.2017 92.7631 21.2044C92.7686 21.207 92.7736 21.2108 92.7776 21.2154C92.9222 21.3563 93.0967 21.4628 93.2882 21.527C93.4797 21.5911 93.6831 21.6112 93.8835 21.5858C93.8897 21.5846 93.896 21.5848 93.9022 21.5862C93.9083 21.5877 93.9141 21.5904 93.9191 21.5941C93.9242 21.5979 93.9284 21.6027 93.9315 21.6082C93.9346 21.6137 93.9365 21.6198 93.9371 21.626C93.9379 21.632 93.9374 21.6381 93.9358 21.6439C93.9342 21.6498 93.9314 21.6552 93.9277 21.66C93.9239 21.6647 93.9193 21.6687 93.914 21.6716C93.9087 21.6745 93.9029 21.6764 93.8969 21.677C93.8346 21.6853 93.7718 21.6898 93.709 21.6905Z" fill="#263238"/>
<path d="M91.9509 19.2399C91.9349 19.2388 91.9193 19.2342 91.9053 19.2265C91.8945 19.2203 91.885 19.2121 91.8774 19.2023C91.8698 19.1925 91.8642 19.1813 91.861 19.1693C91.8577 19.1573 91.8569 19.1448 91.8585 19.1325C91.8601 19.1202 91.8642 19.1084 91.8704 19.0976C91.9396 18.9668 92.04 18.855 92.1626 18.7722C92.2853 18.6893 92.4264 18.6379 92.5736 18.6225C92.586 18.6218 92.5983 18.6235 92.61 18.6276C92.6217 18.6317 92.6324 18.638 92.6417 18.6462C92.6509 18.6544 92.6584 18.6644 92.6638 18.6755C92.6691 18.6867 92.6722 18.6988 92.6729 18.7111C92.6737 18.7235 92.6719 18.7358 92.6679 18.7475C92.6638 18.7592 92.6575 18.7699 92.6493 18.7792C92.641 18.7884 92.6311 18.7959 92.6199 18.8013C92.6088 18.8066 92.5967 18.8097 92.5844 18.8104C92.4685 18.8242 92.3577 18.8661 92.2618 18.9325C92.1659 18.999 92.0877 19.0879 92.0341 19.1916C92.0259 19.2064 92.0138 19.2187 91.9992 19.2272C91.9845 19.2357 91.9678 19.2401 91.9509 19.2399Z" fill="#263238"/>
<path d="M95.1477 18.8292C95.1321 18.8293 95.1168 18.8254 95.1032 18.8179C95.0896 18.8103 95.0781 18.7995 95.0699 18.7863C95.0046 18.6848 94.917 18.5995 94.8137 18.5372C94.7104 18.4748 94.5942 18.437 94.474 18.4266C94.4491 18.4266 94.4252 18.4167 94.4076 18.3991C94.3899 18.3815 94.38 18.3576 94.38 18.3327C94.38 18.3077 94.3899 18.2838 94.4076 18.2662C94.4252 18.2486 94.4491 18.2387 94.474 18.2387C94.625 18.2493 94.7715 18.2948 94.9019 18.3716C95.0324 18.4485 95.1431 18.5546 95.2255 18.6816C95.239 18.7027 95.2437 18.7282 95.2387 18.7528C95.2337 18.7773 95.2193 18.7989 95.1987 18.8131C95.1836 18.8233 95.1659 18.8289 95.1477 18.8292Z" fill="#263238"/>
<path d="M89.205 29.7268C89.2185 29.7107 89.205 29.7268 89.205 29.7268L89.1863 29.7563L89.1406 29.8315L89.044 30.0006C88.9769 30.1214 88.9125 30.2448 88.848 30.3737C88.7246 30.6421 88.6038 30.9105 88.4964 31.1789C88.2821 31.7411 88.1116 32.319 87.9864 32.9075C87.7371 34.1227 87.6639 35.3675 87.769 36.6035C87.7835 36.8636 87.8185 37.122 87.8737 37.3766C87.9349 37.6337 88.0203 37.8844 88.1287 38.1254C88.3776 38.676 88.6825 39.1995 89.0386 39.6876C89.8225 40.7476 90.6992 41.7357 91.6583 42.6401L91.6959 42.6777C91.8452 42.8228 91.9375 43.0166 91.9561 43.224C91.9746 43.4313 91.9182 43.6384 91.797 43.8077C91.6758 43.977 91.4979 44.0972 91.2957 44.1464C91.0934 44.1957 90.8802 44.1708 90.6947 44.0762C90.0215 43.7321 89.377 43.3344 88.7675 42.8871C88.1476 42.4392 87.5634 41.9438 87.0202 41.4054C86.4439 40.8323 85.9392 40.1915 85.517 39.497C85.2854 39.1191 85.092 38.719 84.94 38.3026C84.7917 37.8815 84.683 37.4474 84.6152 37.0062C84.4761 36.2291 84.4042 35.4415 84.4004 34.6522C84.3881 33.853 84.4483 33.0543 84.5803 32.266C84.7132 31.4658 84.9226 30.6802 85.2057 29.9201C85.3499 29.5326 85.5157 29.1536 85.7022 28.7847C85.7989 28.5968 85.8982 28.4116 86.0109 28.2264C86.0673 28.1324 86.1263 28.0385 86.1881 27.9418L86.2874 27.7969L86.4216 27.6117C86.7057 27.2581 87.1164 27.0291 87.5665 26.9732C88.0167 26.9173 88.4709 27.0389 88.8329 27.3122C89.1949 27.5856 89.4362 27.9891 89.5057 28.4374C89.5751 28.8856 89.4673 29.3433 89.205 29.7134V29.7268Z" fill="#263238"/>
<path d="M92.2274 42.6616L93.3359 42.6025L92.0502 44.7498C92.0502 44.7498 90.2572 44.5217 90.4397 43.6064L90.6893 43.338C91.0976 42.9255 91.6474 42.6837 92.2274 42.6616Z" fill="#B55B52"/>
<path d="M94.4847 43.3729L93.5184 45.6544L92.0502 44.7579L93.3359 42.6025L94.4847 43.3729Z" fill="#B55B52"/>
</svg>
