<svg width="134" height="99" viewBox="0 0 134 99" fill="none" xmlns="http://www.w3.org/2000/svg">
<path d="M21.3992 19.2309C28.6846 7.56851 47.6429 5.15769 57.4291 15.9389C67.2153 26.7201 66.6198 38.012 71.2377 41.357C75.8556 44.7019 86.5494 28.5566 98.2992 29.7898C110.049 31.023 118.832 36.5988 115.058 53.8503C111.285 71.1018 90.6724 89.8405 63.4945 86.6358C36.3166 83.4311 0.905953 52.0349 21.3992 19.2309Z" fill="#022162"/>
<path opacity="0.9" d="M21.3992 19.2309C28.6846 7.56851 47.6429 5.15769 57.4291 15.9389C67.2153 26.7201 66.6198 38.012 71.2377 41.357C75.8556 44.7019 86.5494 28.5566 98.2992 29.7898C110.049 31.023 118.832 36.5988 115.058 53.8503C111.285 71.1018 90.6724 89.8405 63.4945 86.6358C36.3166 83.4311 0.905953 52.0349 21.3992 19.2309Z" fill="white"/>
<path d="M66.895 98.592C95.2327 98.592 118.205 97.2508 118.205 95.5964C118.205 93.9419 95.2327 92.6007 66.895 92.6007C38.5574 92.6007 15.5852 93.9419 15.5852 95.5964C15.5852 97.2508 38.5574 98.592 66.895 98.592Z" fill="#F5F5F5"/>
<path d="M25.7921 88.4089H25.5275C25.5275 88.0622 25.8186 79.8559 27.2476 78.4639C28.7242 77.027 30.4602 78.4428 30.4761 78.4639L30.3068 78.6677C30.2432 78.6148 28.7375 77.3922 27.4328 78.6677C26.0779 79.9591 25.7947 88.3242 25.7921 88.4089Z" fill="#022162"/>
<path d="M25.6757 90.0548L25.411 90.0283C25.411 89.9304 26.3319 80.0781 22.7647 75.9842L22.9658 75.8122C26.6072 79.9908 25.7153 89.6446 25.6757 90.0548Z" fill="#022162"/>
<path d="M25.7577 89.0016C25.7286 88.5359 25.0405 77.5721 27.7901 75.0422L27.97 75.238C25.3237 77.6806 26.0144 88.8719 26.0223 88.9831L25.7577 89.0016Z" fill="#022162"/>
<path d="M25.411 88.9937C25.411 88.9196 25.3264 81.5654 23.3813 80.4513C23.2176 80.3426 23.03 80.2752 22.8346 80.2549C22.6392 80.2346 22.4417 80.2621 22.2592 80.3349C21.1187 80.8059 20.5127 82.9812 20.5074 83.005L20.2427 82.9362C20.2692 82.8409 20.8911 80.6101 22.1481 80.0914C22.3682 80.0027 22.6064 79.9682 22.8427 79.9908C23.0789 80.0133 23.3063 80.0923 23.5057 80.2211C25.5804 81.4093 25.6651 88.6893 25.6677 88.991L25.411 88.9937Z" fill="#022162"/>
<path d="M26.2129 88.999C26.2129 88.7635 25.898 83.177 27.4831 81.105C27.9065 80.5519 28.3802 80.2925 28.891 80.3269C30.0236 80.4063 30.8995 81.9359 30.9366 82.0021L30.7064 82.1317C30.7064 82.1159 29.8622 80.6604 28.8724 80.5916C28.457 80.5625 28.06 80.79 27.6948 81.2664C26.1679 83.2591 26.4749 88.9408 26.4775 88.9858L26.2129 88.999Z" fill="#022162"/>
<path d="M25.9297 89.7717L25.6651 89.7532C25.6651 89.6182 26.6601 76.3256 25.0247 74.1133L25.2364 73.9545C26.9353 76.2463 25.972 89.2213 25.9297 89.7717Z" fill="#022162"/>
<path d="M21.7062 81.4278C21.7062 81.4278 22.7197 81.801 22.418 82.6822C22.1164 83.5634 18.9143 85.0163 18.9143 85.0163C18.9143 85.0163 17.5726 83.7857 18.8031 81.7851C20.0337 79.7844 21.6797 80.798 21.7062 81.4278Z" fill="#022162"/>
<path opacity="0.2" d="M21.7062 81.4278C21.7062 81.4278 22.7197 81.801 22.418 82.6822C22.1164 83.5634 18.9143 85.0163 18.9143 85.0163C18.9143 85.0163 17.5726 83.7857 18.8031 81.7851C20.0337 79.7844 21.6797 80.798 21.7062 81.4278Z" fill="white"/>
<path d="M26.1123 79.75C26.1123 79.75 25.0326 79.705 24.9718 80.6339C24.9109 81.5627 27.3085 84.1376 27.3085 84.1376C27.3085 84.1376 29.0206 83.5184 28.6528 81.1975C28.285 78.8767 26.3796 79.1757 26.1123 79.75Z" fill="#022162"/>
<path opacity="0.2" d="M26.1123 79.75C26.1123 79.75 25.0326 79.705 24.9718 80.6339C24.9109 81.5627 27.3085 84.1376 27.3085 84.1376C27.3085 84.1376 29.0206 83.5184 28.6528 81.1975C28.285 78.8767 26.3796 79.1757 26.1123 79.75Z" fill="white"/>
<path d="M27.0253 75.2962C27.0253 75.2962 26.3055 75.2195 26.3637 74.7828C26.4219 74.3462 29.1609 73.2162 30.7778 75.0474C30.7778 75.0474 29.7431 76.8258 28.2479 76.847C26.7527 76.8681 27.0253 75.2962 27.0253 75.2962Z" fill="#022162"/>
<path opacity="0.2" d="M27.0253 75.2962C27.0253 75.2962 26.3055 75.2195 26.3637 74.7828C26.4219 74.3462 29.1609 73.2162 30.7778 75.0474C30.7778 75.0474 29.7431 76.8258 28.2479 76.847C26.7527 76.8681 27.0253 75.2962 27.0253 75.2962Z" fill="white"/>
<path d="M25.6862 74.2324C25.6862 74.2324 26.3372 74.5473 26.5198 74.1451C26.7024 73.7428 24.9744 71.3373 22.6377 72.028C22.6377 72.028 22.5768 74.0842 23.8338 74.894C25.0908 75.7038 25.6862 74.2324 25.6862 74.2324Z" fill="#022162"/>
<path opacity="0.2" d="M25.6862 74.2324C25.6862 74.2324 26.3372 74.5473 26.5198 74.1451C26.7024 73.7428 24.9744 71.3373 22.6377 72.028C22.6377 72.028 22.5768 74.0842 23.8338 74.894C25.0908 75.7038 25.6862 74.2324 25.6862 74.2324Z" fill="white"/>
<path d="M29.0921 81.0732C29.0921 81.0732 28.5946 80.6736 29.1318 80.4778C29.669 80.2819 32.3074 80.3375 32.3233 82.9415C32.3233 82.9415 29.2615 83.4496 28.883 82.4572C28.5046 81.4649 29.0921 81.0732 29.0921 81.0732Z" fill="#022162"/>
<path opacity="0.2" d="M29.0921 81.0732C29.0921 81.0732 28.5946 80.6736 29.1318 80.4778C29.669 80.2819 32.3074 80.3375 32.3233 82.9415C32.3233 82.9415 29.2615 83.4496 28.883 82.4572C28.5046 81.4649 29.0921 81.0732 29.0921 81.0732Z" fill="white"/>
<path d="M22.8467 75.2327C22.8467 75.2327 23.3442 74.8304 22.807 74.6346C22.2698 74.4388 19.6314 74.4944 19.6155 77.101C19.6155 77.101 22.6774 77.6091 23.0558 76.6167C23.4342 75.6243 22.8467 75.2327 22.8467 75.2327Z" fill="#022162"/>
<path opacity="0.2" d="M22.8467 75.2327C22.8467 75.2327 23.3442 74.8304 22.807 74.6346C22.2698 74.4388 19.6314 74.4944 19.6155 77.101C19.6155 77.101 22.6774 77.6091 23.0558 76.6167C23.4342 75.6243 22.8467 75.2327 22.8467 75.2327Z" fill="white"/>
<path d="M24.4663 77.3313C24.4663 77.3313 24.5086 76.8417 24.117 77.0349C23.7253 77.2281 22.3519 78.7047 23.773 80.1073C23.773 80.1073 25.6863 78.6888 25.3422 77.9532C24.9982 77.2175 24.4663 77.3313 24.4663 77.3313Z" fill="#022162"/>
<path opacity="0.2" d="M24.4663 77.3313C24.4663 77.3313 24.5086 76.8417 24.117 77.0349C23.7253 77.2281 22.3519 78.7047 23.773 80.1073C23.773 80.1073 25.6863 78.6888 25.3422 77.9532C24.9982 77.2175 24.4663 77.3313 24.4663 77.3313Z" fill="white"/>
<path d="M29.5367 78.0245C29.5367 78.0245 29.2376 77.6355 29.6743 77.5879C30.1109 77.5403 32.056 78.059 31.6035 80.004C31.6035 80.004 29.2218 79.8241 29.1265 79.0169C29.0312 78.2098 29.5367 78.0245 29.5367 78.0245Z" fill="#022162"/>
<path opacity="0.2" d="M29.5367 78.0245C29.5367 78.0245 29.2376 77.6355 29.6743 77.5879C30.1109 77.5403 32.056 78.059 31.6035 80.004C31.6035 80.004 29.2218 79.8241 29.1265 79.0169C29.0312 78.2098 29.5367 78.0245 29.5367 78.0245Z" fill="white"/>
<path d="M21.5183 96.2102H29.661L30.5396 87.2974H20.6397L21.5183 96.2102Z" fill="#263238"/>
<path d="M20.2057 88.2791H30.9736V86.3129H20.2057V88.2791Z" fill="#263238"/>
<path opacity="0.2" d="M20.2057 88.2791H30.9736V86.3129H20.2057V88.2791Z" fill="white"/>
<path d="M46.6743 23.5259H39.6377L39.5769 22.8141C39.5746 22.7909 39.5773 22.7675 39.5847 22.7454C39.5921 22.7233 39.604 22.703 39.6197 22.6858C39.6354 22.6686 39.6546 22.6548 39.6759 22.6455C39.6972 22.6361 39.7203 22.6314 39.7436 22.6315H46.4282C46.4779 22.6325 46.5255 22.6516 46.562 22.6852C46.5986 22.7189 46.6216 22.7647 46.6267 22.8141L46.6743 23.5259Z" fill="#263238"/>
<path d="M38.7354 23.5259H31.6987L31.6379 22.8141C31.6357 22.7909 31.6383 22.7675 31.6457 22.7454C31.6531 22.7233 31.665 22.703 31.6807 22.6858C31.6964 22.6686 31.7156 22.6548 31.7369 22.6455C31.7582 22.6361 31.7813 22.6314 31.8046 22.6315H38.4892C38.5389 22.6325 38.5865 22.6516 38.623 22.6852C38.6596 22.7189 38.6826 22.7647 38.6877 22.8141L38.7354 23.5259Z" fill="#263238"/>
<path d="M94.8324 22.9966H25.2866C25.064 22.9928 24.8431 23.0358 24.6381 23.1229C24.4332 23.21 24.2489 23.3392 24.0972 23.5022C23.9454 23.6652 23.8297 23.8582 23.7574 24.0688C23.6851 24.2794 23.658 24.5029 23.6777 24.7247L27.544 70.4508C27.5939 70.9216 27.815 71.3577 28.1653 71.6763C28.5155 71.9949 28.9706 72.1737 29.444 72.1788H98.9898C99.2125 72.1827 99.4334 72.1397 99.6383 72.0526C99.8433 71.9655 100.028 71.8362 100.179 71.6733C100.331 71.5103 100.447 71.3173 100.519 71.1066C100.591 70.896 100.619 70.6726 100.599 70.4508L96.7325 24.7247C96.6832 24.2536 96.4622 23.8172 96.1118 23.4985C95.7614 23.1798 95.3061 23.0012 94.8324 22.9966Z" fill="#263238"/>
<path opacity="0.2" d="M98.9898 72.1788H30.5026C30.0291 72.1737 29.5741 71.9949 29.2238 71.6763C28.8735 71.3577 28.6524 70.9216 28.6025 70.4508L24.7362 24.7247C24.7165 24.5029 24.7437 24.2794 24.8159 24.0688C24.8882 23.8582 25.004 23.6652 25.1557 23.5022C25.3074 23.3392 25.4918 23.21 25.6967 23.1229C25.9016 23.0358 26.1225 22.9928 26.3452 22.9966H94.8324C95.3061 23.0012 95.7614 23.1798 96.1118 23.4985C96.4622 23.8172 96.6832 24.2536 96.7325 24.7247L100.599 70.4508C100.618 70.6726 100.591 70.896 100.519 71.1066C100.447 71.3173 100.331 71.5103 100.179 71.6733C100.028 71.8362 99.8433 71.9655 99.6383 72.0526C99.4334 72.1397 99.2125 72.1827 98.9898 72.1788Z" fill="white"/>
<path d="M95.674 70.7578H31.4103L27.4937 24.4151H91.7574L95.674 70.7578Z" fill="#022162"/>
<g opacity="0.5">
<path opacity="0.6" d="M28.3961 46.6761C28.3804 46.5506 28.3202 46.4349 28.2265 46.35C28.1328 46.265 28.0118 46.2164 27.8854 46.213C27.8256 46.2116 27.7662 46.2229 27.7111 46.2461C27.656 46.2693 27.6065 46.304 27.5657 46.3477C27.525 46.3915 27.494 46.4433 27.4747 46.4999C27.4555 46.5566 27.4484 46.6166 27.454 46.6761C27.4692 46.8021 27.5291 46.9184 27.6229 47.0039C27.7166 47.0894 27.8379 47.1383 27.9648 47.1419C28.0248 47.1433 28.0844 47.1319 28.1397 47.1086C28.195 47.0852 28.2447 47.0503 28.2855 47.0063C28.3263 46.9622 28.3572 46.91 28.3763 46.8531C28.3954 46.7962 28.4021 46.7358 28.3961 46.6761Z" fill="black"/>
<path opacity="0.6" d="M28.0785 48.4968C28.0486 48.4963 28.019 48.5021 27.9915 48.5139C27.964 48.5256 27.9393 48.5431 27.9191 48.5651C27.8988 48.5871 27.8835 48.6131 27.874 48.6415C27.8645 48.6699 27.8612 48.6999 27.8642 48.7297C27.872 48.7942 27.9033 48.8536 27.9521 48.8966C28.0009 48.9395 28.0638 48.963 28.1288 48.9626C28.1588 48.963 28.1886 48.9572 28.2162 48.9455C28.2438 48.9337 28.2686 48.9163 28.2891 48.8944C28.3096 48.8724 28.3252 48.8464 28.3349 48.818C28.3447 48.7897 28.3484 48.7596 28.3458 48.7297C28.338 48.6647 28.3063 48.6049 28.2569 48.5619C28.2076 48.5189 28.144 48.4957 28.0785 48.4968Z" fill="black"/>
</g>
<path opacity="0.5" d="M97.5343 47.5865C97.552 47.7693 97.5307 47.9538 97.4718 48.1277C97.4129 48.3017 97.3178 48.4612 97.1928 48.5957C97.0677 48.7303 96.9156 48.8368 96.7464 48.9082C96.5772 48.9797 96.3948 49.0144 96.2112 49.0102C95.8211 49.0064 95.4461 48.8592 95.1576 48.5966C94.8692 48.334 94.6875 47.9745 94.6472 47.5865C94.6295 47.4038 94.6509 47.2194 94.7097 47.0456C94.7686 46.8717 94.8638 46.7124 94.9889 46.5781C95.1139 46.4437 95.2661 46.3375 95.4353 46.2663C95.6045 46.1952 95.7869 46.1608 95.9704 46.1654C96.36 46.1691 96.7347 46.3159 97.0231 46.578C97.3115 46.84 97.4935 47.199 97.5343 47.5865Z" fill="black"/>
<path d="M24.7415 30.6498H24.289C24.2397 30.6489 24.1925 30.6302 24.156 30.5971C24.1195 30.564 24.0963 30.5188 24.0905 30.4699L23.7597 26.6592C23.7579 26.636 23.7609 26.6126 23.7686 26.5907C23.7763 26.5687 23.7885 26.5486 23.8045 26.5316C23.8205 26.5147 23.8398 26.5013 23.8612 26.4922C23.8827 26.4832 23.9058 26.4788 23.9291 26.4792H24.3816C24.4308 26.4802 24.4781 26.4989 24.5146 26.532C24.5511 26.5651 24.5743 26.6103 24.5801 26.6592L24.9029 30.4699C24.9051 30.4925 24.9026 30.5153 24.8955 30.5369C24.8884 30.5585 24.8769 30.5784 24.8618 30.5953C24.8466 30.6123 24.8281 30.6258 24.8074 30.6352C24.7867 30.6446 24.7642 30.6496 24.7415 30.6498Z" fill="#263238"/>
<path opacity="0.2" d="M24.7415 30.6498H24.289C24.2397 30.6489 24.1925 30.6302 24.156 30.5971C24.1195 30.564 24.0963 30.5188 24.0905 30.4699L23.7597 26.6592C23.7579 26.636 23.7609 26.6126 23.7686 26.5907C23.7763 26.5687 23.7885 26.5486 23.8045 26.5316C23.8205 26.5147 23.8398 26.5013 23.8612 26.4922C23.8827 26.4832 23.9058 26.4788 23.9291 26.4792H24.3816C24.4308 26.4802 24.4781 26.4989 24.5146 26.532C24.5511 26.5651 24.5743 26.6103 24.5801 26.6592L24.9029 30.4699C24.9051 30.4925 24.9026 30.5153 24.8955 30.5369C24.8884 30.5585 24.8769 30.5784 24.8618 30.5953C24.8466 30.6123 24.8281 30.6258 24.8074 30.6352C24.7867 30.6446 24.7642 30.6496 24.7415 30.6498Z" fill="white"/>
<path opacity="0.7" d="M95.674 70.7578H31.4103L27.4937 24.4151H91.7574L95.674 70.7578Z" fill="white"/>
<path opacity="0.1" d="M70.4755 35.5906L71.6796 49.8305H93.9062L94.3746 55.3746H80.9312L82.2332 70.7578H79.7192L78.4172 55.3746H59.5726L60.8746 70.7578H55.2432L53.9412 55.3746H40.4158L41.1515 64.0837L38.7354 65.219L31.2383 68.7386L31.0081 66.0155L38.5051 62.4959L37.9018 55.3746H30.1083L29.6399 49.8305H53.4728L52.5757 39.1975L27.5969 25.6509L27.4937 24.4177H30.3438L52.3322 36.3421L51.3266 24.4177H56.958L59.1042 49.8305H69.1656L67.0194 24.4177H69.5335L70.2665 33.1136H92.4931L92.7021 35.5906H70.4755Z" fill="black"/>
<path opacity="0.4" d="M43.0092 48.4968H52.1523L51.6442 42.4869H42.5011L43.0092 48.4968Z" fill="white"/>
<path opacity="0.4" d="M41.8977 44.6332H37.9732L38.2987 48.4968H42.2259L41.8977 44.6332Z" fill="white"/>
<path opacity="0.4" d="M33.5882 48.4968H37.5127L37.1872 44.6332H33.2627L33.5882 48.4968Z" fill="white"/>
<path opacity="0.4" d="M35.3851 31.285L30.8149 28.8292L29.8145 30.8404L34.3821 33.2988L35.3851 31.285Z" fill="white"/>
<path opacity="0.4" d="M39.516 36.059L40.5163 34.0478L35.9488 31.5894L34.9458 33.6006L39.516 36.059Z" fill="white"/>
<path opacity="0.4" d="M44.6473 38.8217L45.6476 36.8079L41.08 34.3521L40.0797 36.3633L44.6473 38.8217Z" fill="white"/>
<path opacity="0.4" d="M33.313 35.7891H32.056C31.8247 35.7831 31.5947 35.8263 31.3814 35.916C31.168 36.0056 30.9761 36.1396 30.8185 36.309C30.6609 36.4784 30.541 36.6794 30.4669 36.8986C30.3929 37.1178 30.3662 37.3503 30.3888 37.5806L30.6931 41.1876C30.7456 41.6755 30.9754 42.1272 31.3388 42.4569C31.7022 42.7867 32.174 42.9715 32.6647 42.9765H33.919C34.1502 42.9824 34.38 42.9392 34.5933 42.8497C34.8066 42.7603 34.9984 42.6266 35.1562 42.4576C35.314 42.2885 35.4342 42.0879 35.5088 41.869C35.5833 41.6501 35.6106 41.4178 35.5889 41.1876L35.2819 37.578C35.23 37.0903 35.0008 36.6387 34.6378 36.3089C34.2749 35.9791 33.8034 35.7941 33.313 35.7891Z" fill="white"/>
<path opacity="0.4" d="M67.1385 42.4869H59.8108L60.2871 48.121H67.6148L67.1385 42.4869Z" fill="white"/>
<path opacity="0.4" d="M62.3513 40.3222H66.9559L66.5722 35.789H61.9676L62.3513 40.3222Z" fill="white"/>
<path opacity="0.4" d="M63.566 29.3585H58.702L59.1069 34.1483H63.9709L63.566 29.3585Z" fill="white"/>
<path opacity="0.4" d="M75.9958 26.9636H71.1318L71.5367 31.7534H76.4033L75.9958 26.9636Z" fill="white"/>
<path opacity="0.4" d="M72.9207 48.121H79.1317L78.9094 45.4932H72.6985L72.9207 48.121Z" fill="white"/>
<path opacity="0.4" d="M80.1082 48.121H86.3192L86.0969 45.4932H79.8859L80.1082 48.121Z" fill="white"/>
<path opacity="0.4" d="M87.2983 48.121H91.8341L91.6118 45.4932H87.076L87.2983 48.121Z" fill="white"/>
<path opacity="0.4" d="M71.5817 60.3497C70.995 60.333 70.4115 60.4414 69.87 60.6676C69.3284 60.8939 68.8412 61.2327 68.4407 61.6618C68.0402 62.0908 67.7356 62.6002 67.5471 63.156C67.3587 63.7118 67.2906 64.3014 67.3476 64.8855C67.4786 66.1213 68.0591 67.2659 68.9788 68.1017C69.8985 68.9374 71.0933 69.4062 72.3359 69.4187C72.9225 69.4357 73.5059 69.3277 74.0475 69.1018C74.589 68.8759 75.0763 68.5372 75.4768 68.1084C75.8774 67.6796 76.182 67.1704 76.3705 66.6147C76.559 66.059 76.627 65.4695 76.5701 64.8855C76.4396 63.6492 75.8594 62.504 74.9396 61.6677C74.0199 60.8314 72.8248 60.3623 71.5817 60.3497Z" fill="white"/>
<path opacity="0.4" d="M89.9978 43.0193C90.9927 41.7677 90.6936 39.8742 89.3298 38.7902C87.966 37.7061 86.0539 37.842 85.059 39.0937C84.0641 40.3454 84.3631 42.2388 85.7269 43.3229C87.0907 44.4069 89.0028 44.271 89.9978 43.0193Z" fill="white"/>
<path opacity="0.4" d="M66.6728 56.801H61.0202L61.3219 60.3497H66.9744L66.6728 56.801Z" fill="white"/>
<path opacity="0.4" d="M83.6834 65.6397H86.8934L86.1471 56.801H82.9371L83.6834 65.6397Z" fill="white"/>
<path opacity="0.4" d="M87.7509 56.801L88.0525 60.3497H93.7183L93.4193 56.801H87.7509Z" fill="white"/>
<path opacity="0.4" d="M33.1939 60.3497H36.8009L36.5019 56.801H32.8949L33.1939 60.3497Z" fill="white"/>
<path opacity="0.4" d="M43.3559 61.8608H49.1646L48.7703 57.19H42.9589L43.3559 61.8608Z" fill="white"/>
<path opacity="0.4" d="M42.9457 69.4505H53.576L53.3008 66.1902H42.6705L42.9457 69.4505Z" fill="white"/>
<path opacity="0.4" d="M44.1101 29.2924L49.9161 32.3515L49.4742 27.125H43.9248L44.1101 29.2924Z" fill="white"/>
<path d="M54.8171 25.5081C54.3692 25.092 53.7775 24.8657 53.1662 24.8767C52.5549 24.8877 51.9717 25.1352 51.539 25.5671C51.1064 25.9991 50.858 26.5819 50.846 27.1932C50.834 27.8044 51.0594 28.3965 51.4748 28.8451L53.1447 30.515L54.8171 28.8451C55.2588 28.4021 55.5068 27.8021 55.5068 27.1766C55.5068 26.5511 55.2588 25.9511 54.8171 25.5081ZM53.7957 27.8289C53.6669 27.9578 53.5028 28.0455 53.3241 28.0811C53.1455 28.1167 52.9603 28.0985 52.792 28.0288C52.6237 27.9591 52.4798 27.8411 52.3786 27.6896C52.2774 27.5382 52.2233 27.3601 52.2233 27.1779C52.2233 26.9958 52.2774 26.8177 52.3786 26.6662C52.4798 26.5148 52.6237 26.3967 52.792 26.3271C52.9603 26.2574 53.1455 26.2392 53.3241 26.2747C53.5028 26.3103 53.6669 26.3981 53.7957 26.5269C53.8814 26.6123 53.9495 26.7137 53.9959 26.8254C54.0424 26.9371 54.0663 27.0569 54.0663 27.1779C54.0663 27.2989 54.0424 27.4187 53.9959 27.5304C53.9495 27.6422 53.8814 27.7436 53.7957 27.8289Z" fill="#263238"/>
<path opacity="0.2" d="M54.8172 28.845L53.1341 30.5201V28.0987C53.3797 28.0987 53.6153 28.0012 53.789 27.8275C53.9627 27.6538 54.0603 27.4182 54.0603 27.1725C54.0603 26.9269 53.9627 26.6913 53.789 26.5176C53.6153 26.3439 53.3797 26.2463 53.1341 26.2463V24.804C53.6033 24.8016 54.0627 24.9387 54.4538 25.198C54.8449 25.4573 55.1501 25.827 55.3305 26.2602C55.5109 26.6934 55.5585 27.1704 55.4671 27.6307C55.3756 28.091 55.1494 28.5136 54.8172 28.845Z" fill="white"/>
<path d="M85.9064 41.6137C85.6869 41.3942 85.4264 41.2201 85.1396 41.1013C84.8529 40.9826 84.5456 40.9214 84.2352 40.9214C83.9248 40.9214 83.6175 40.9826 83.3308 41.1013C83.044 41.2201 82.7835 41.3942 82.564 41.6137C82.3446 41.8331 82.1705 42.0937 82.0517 42.3804C81.933 42.6671 81.8718 42.9745 81.8718 43.2848C81.8718 43.5952 81.933 43.9025 82.0517 44.1893C82.1705 44.476 82.3446 44.7365 82.564 44.956L84.2339 46.6258L85.9064 44.956C86.1259 44.7365 86.3 44.476 86.4188 44.1893C86.5375 43.9025 86.5987 43.5952 86.5987 43.2848C86.5987 42.9745 86.5375 42.6671 86.4188 42.3804C86.3 42.0936 86.1259 41.8331 85.9064 41.6137ZM84.8902 43.9292C84.7614 44.0581 84.5973 44.1458 84.4187 44.1814C84.24 44.217 84.0548 44.1988 83.8865 44.1291C83.7182 44.0594 83.5743 43.9414 83.4731 43.7899C83.3719 43.6385 83.3179 43.4604 83.3179 43.2782C83.3179 43.096 83.3719 42.918 83.4731 42.7665C83.5743 42.6151 83.7182 42.497 83.8865 42.4273C84.0548 42.3576 84.24 42.3394 84.4187 42.375C84.5973 42.4106 84.7614 42.4984 84.8902 42.6272C84.976 42.7125 85.044 42.814 85.0905 42.9257C85.1369 43.0374 85.1608 43.1572 85.1608 43.2782C85.1608 43.3992 85.1369 43.519 85.0905 43.6307C85.044 43.7424 84.976 43.8439 84.8902 43.9292Z" fill="#263238"/>
<path opacity="0.2" d="M85.9063 44.956L84.2338 46.6258V44.1939C84.4795 44.1939 84.7151 44.0963 84.8888 43.9226C85.0625 43.7489 85.16 43.5133 85.16 43.2676C85.16 43.022 85.0625 42.7864 84.8888 42.6127C84.7151 42.439 84.4795 42.3414 84.2338 42.3414V40.8992C84.7011 40.8999 85.1577 41.0389 85.546 41.2987C85.9344 41.5586 86.2371 41.9276 86.4159 42.3592C86.5948 42.7909 86.6419 43.2658 86.5512 43.7242C86.4605 44.1826 86.2361 44.6038 85.9063 44.9348V44.956Z" fill="white"/>
<path d="M54.0709 63.3798C53.6277 62.9366 53.0265 62.6876 52.3997 62.6876C51.7729 62.6876 51.1718 62.9366 50.7286 63.3798C50.2853 63.823 50.0363 64.4241 50.0363 65.0509C50.0363 65.6777 50.2853 66.2789 50.7286 66.7221L52.3984 68.3919L54.0709 66.7221C54.2904 66.5027 54.4645 66.2421 54.5833 65.9554C54.7021 65.6686 54.7632 65.3613 54.7632 65.0509C54.7632 64.7406 54.7021 64.4332 54.5833 64.1465C54.4645 63.8598 54.2904 63.5992 54.0709 63.3798ZM53.0494 65.7006C52.9206 65.8295 52.7565 65.9172 52.5779 65.9528C52.3992 65.9884 52.214 65.9702 52.0457 65.9005C51.8774 65.8308 51.7336 65.7128 51.6323 65.5613C51.5311 65.4099 51.4771 65.2318 51.4771 65.0496C51.4771 64.8675 51.5311 64.6894 51.6323 64.5379C51.7336 64.3865 51.8774 64.2684 52.0457 64.1987C52.214 64.1291 52.3992 64.1109 52.5779 64.1464C52.7565 64.182 52.9206 64.2698 53.0494 64.3986C53.1352 64.484 53.2032 64.5854 53.2497 64.6971C53.2961 64.8088 53.32 64.9286 53.32 65.0496C53.32 65.1706 53.2961 65.2904 53.2497 65.4021C53.2032 65.5138 53.1352 65.6153 53.0494 65.7006Z" fill="#263238"/>
<path opacity="0.2" d="M54.0709 66.7221L52.3984 68.3919V65.9705C52.6441 65.9705 52.8796 65.8729 53.0533 65.6992C53.227 65.5255 53.3246 65.29 53.3246 65.0443C53.3246 64.7987 53.227 64.5631 53.0533 64.3894C52.8796 64.2157 52.6441 64.1181 52.3984 64.1181V62.6758C52.8657 62.6765 53.3223 62.8156 53.7106 63.0754C54.0989 63.3352 54.4016 63.7043 54.5805 64.1359C54.7594 64.5676 54.8065 65.0425 54.7158 65.5009C54.6251 65.9593 54.4007 66.3805 54.0709 66.7115V66.7221Z" fill="white"/>
<path opacity="0.2" d="M88.5791 26.7281H61.0096C60.617 26.7288 60.2407 26.8852 59.9634 27.1631C59.686 27.4409 59.5303 27.8175 59.5303 28.21V38.1761C59.5303 38.5685 59.6861 38.9447 59.9636 39.2222C60.241 39.4996 60.6172 39.6555 61.0096 39.6555H81.1614L83.8316 41.7222L83.0377 39.6475H88.595C88.9873 39.6475 89.3636 39.4917 89.641 39.2142C89.9185 38.9368 90.0743 38.5605 90.0743 38.1682V28.2021C90.0733 28.007 90.0337 27.8141 89.958 27.6343C89.8822 27.4546 89.7717 27.2916 89.6328 27.1546C89.4939 27.0177 89.3293 26.9095 89.1485 26.8363C88.9677 26.7631 88.7742 26.7263 88.5791 26.7281Z" fill="black"/>
<path d="M89.373 25.9341H61.8035C61.4109 25.9348 61.0346 26.0913 60.7573 26.3691C60.4799 26.647 60.3242 27.0235 60.3242 27.4161V37.3822C60.3242 37.7745 60.48 38.1508 60.7574 38.4282C61.0349 38.7057 61.4111 38.8615 61.8035 38.8615H81.9553L83.8316 41.7222V38.8536H89.3889C89.7812 38.8536 90.1575 38.6977 90.4349 38.4203C90.7123 38.1429 90.8682 37.7666 90.8682 37.3743V27.4082C90.8672 27.2131 90.8276 27.0202 90.7519 26.8404C90.6761 26.6607 90.5656 26.4976 90.4267 26.3607C90.2878 26.2237 90.1232 26.1156 89.9424 26.0424C89.7616 25.9692 89.5681 25.9324 89.373 25.9341Z" fill="#022162"/>
<path opacity="0.7" d="M71.2906 28.726V36.0563C71.2913 36.1702 71.265 36.2827 71.2139 36.3845C71.2149 36.3924 71.2149 36.4004 71.2139 36.4083C71.199 36.4359 71.1822 36.4625 71.1636 36.4877C71.0948 36.5843 71.0041 36.6632 70.899 36.7179C70.8208 36.7602 70.7356 36.788 70.6475 36.8C70.6229 36.8027 70.5981 36.8027 70.5735 36.8H63.1637C63.1136 36.7976 63.0639 36.7896 63.0155 36.7761H62.9943C62.9409 36.7587 62.8894 36.7356 62.8408 36.7073C62.8071 36.6893 62.7752 36.668 62.7456 36.6438C62.6834 36.5958 62.6298 36.5376 62.5868 36.4718C62.5141 36.3633 62.472 36.2371 62.4651 36.1066C62.4638 36.0899 62.4638 36.0731 62.4651 36.0563V28.726C62.465 28.5307 62.5409 28.3431 62.6767 28.2028C62.8125 28.0625 62.9976 27.9806 63.1928 27.9744H70.5443C70.7428 27.9758 70.9326 28.0556 71.0724 28.1964C71.2122 28.3372 71.2906 28.5276 71.2906 28.726Z" fill="white"/>
<path d="M87.0548 31.1104H74.5853C74.5422 31.1104 74.4995 31.1019 74.4597 31.0854C74.4199 31.0689 74.3837 31.0447 74.3533 31.0143C74.3228 30.9838 74.2986 30.9476 74.2821 30.9078C74.2656 30.868 74.2571 30.8253 74.2571 30.7822C74.2578 30.6957 74.2927 30.6129 74.3542 30.5519C74.4156 30.4909 74.4987 30.4567 74.5853 30.4567H87.0548C87.1412 30.4567 87.224 30.491 87.285 30.5521C87.346 30.6131 87.3803 30.6959 87.3803 30.7822C87.3807 30.8252 87.3725 30.8678 87.3563 30.9076C87.3401 30.9474 87.3162 30.9836 87.2859 31.0141C87.2557 31.0446 87.2197 31.0688 87.18 31.0853C87.1403 31.1019 87.0978 31.1104 87.0548 31.1104Z" fill="white"/>
<path d="M83.0509 27.9744H74.7229C74.659 27.9696 74.5947 27.978 74.5342 27.9992C74.4737 28.0203 74.4182 28.0537 74.3711 28.0973C74.3241 28.1409 74.2866 28.1938 74.261 28.2525C74.2353 28.3113 74.2221 28.3747 74.2221 28.4388C74.2221 28.503 74.2353 28.5664 74.261 28.6252C74.2866 28.6839 74.3241 28.7368 74.3711 28.7804C74.4182 28.824 74.4737 28.8574 74.5342 28.8785C74.5947 28.8997 74.659 28.9081 74.7229 28.9033H83.0509C83.1681 28.8944 83.2775 28.8417 83.3574 28.7555C83.4372 28.6694 83.4816 28.5563 83.4816 28.4388C83.4816 28.3214 83.4372 28.2083 83.3574 28.1221C83.2775 28.036 83.1681 27.9833 83.0509 27.9744Z" fill="white"/>
<path d="M82.0268 32.4546H74.5853C74.4985 32.4539 74.4154 32.4191 74.354 32.3578C74.2926 32.2964 74.2578 32.2133 74.2571 32.1265C74.2578 32.0397 74.2926 31.9566 74.354 31.8952C74.4154 31.8338 74.4985 31.799 74.5853 31.7983H82.0268C82.1134 31.799 82.1961 31.8339 82.2571 31.8954C82.3181 31.9568 82.3523 32.0399 82.3523 32.1265C82.3523 32.2131 82.3181 32.2961 82.2571 32.3576C82.1961 32.4191 82.1134 32.4539 82.0268 32.4546Z" fill="white"/>
<path d="M65.5983 28.1332C66.0357 27.7505 66.5625 27.4841 67.13 27.3588C67.6975 27.2335 68.2875 27.2531 68.8454 27.416C70.7269 28.0009 69.9039 31.502 69.9039 31.502C70.2185 31.8569 70.4291 32.2917 70.5127 32.7586C70.5962 33.2254 70.5495 33.7063 70.3776 34.1483C69.7901 35.7017 65.2966 36.0458 63.775 34.7041C62.2534 33.3624 64.0238 29.9936 64.8944 29.6019C65.765 29.2103 65.5983 28.1332 65.5983 28.1332Z" fill="#263238"/>
<path d="M70.8936 36.718C70.8154 36.7603 70.7303 36.7881 70.6422 36.8001C70.6176 36.8028 70.5928 36.8028 70.5681 36.8001H63.1584C63.1082 36.7977 63.0585 36.7897 63.0102 36.7763H62.989C62.9356 36.7588 62.8841 36.7358 62.8355 36.7075C62.8018 36.6894 62.7699 36.6681 62.7403 36.6439C62.6781 36.5959 62.6244 36.5377 62.5815 36.4719C62.5577 36.3555 62.5338 36.2338 62.5074 36.112C63.0367 36.0221 63.5448 35.9506 64.0687 35.903C64.4551 35.8659 64.8441 35.8421 65.2358 35.8289C65.4236 35.8289 65.6142 35.8289 65.8021 35.813C66.4425 35.813 67.0856 35.813 67.7233 35.8765L68.1335 35.9136C68.7342 35.9876 69.3693 36.1041 69.8669 36.2046C70.3644 36.3052 70.7772 36.4005 70.7772 36.4005C70.7772 36.4005 70.8486 36.4269 70.8936 36.718Z" fill="#022162"/>
<path opacity="0.3" d="M70.8936 36.718C70.8154 36.7603 70.7303 36.7881 70.6422 36.8001C70.6176 36.8028 70.5928 36.8028 70.5681 36.8001H63.1584C63.1082 36.7977 63.0585 36.7897 63.0102 36.7763H62.989C62.9356 36.7588 62.8841 36.7358 62.8355 36.7075C62.8018 36.6894 62.7699 36.6681 62.7403 36.6439C62.6781 36.5959 62.6244 36.5377 62.5815 36.4719C62.5577 36.3555 62.5338 36.2338 62.5074 36.112C63.0367 36.0221 63.5448 35.9506 64.0687 35.903C64.4551 35.8659 64.8441 35.8421 65.2358 35.8289C65.4236 35.8289 65.6142 35.8289 65.8021 35.813C66.4425 35.813 67.0856 35.813 67.7233 35.8765L68.1335 35.9136C68.7342 35.9876 69.3693 36.1041 69.8669 36.2046C70.3644 36.3052 70.7772 36.4005 70.7772 36.4005C70.7772 36.4005 70.8486 36.4269 70.8936 36.718Z" fill="black"/>
<path d="M67.9536 36.8079H66.3181C65.9968 36.6464 65.7231 36.4037 65.5242 36.104C65.6392 36.0222 65.7418 35.9242 65.8286 35.8129C65.9074 35.7161 65.9733 35.6093 66.0244 35.4953C66.2188 34.9972 66.2567 34.4516 66.1329 33.9314C66.0932 33.7329 66.0482 33.5953 66.0403 33.5662L67.8927 34.1722C67.8557 34.2966 67.8265 34.413 67.8001 34.5215C67.7604 34.6829 67.7339 34.8285 67.7128 34.9581C67.6844 35.133 67.6747 35.3105 67.6836 35.4874C67.6865 35.6202 67.7143 35.7513 67.7657 35.8738C67.8768 36.1384 68.0621 36.1728 68.0621 36.1728C68.0991 36.2792 68.1086 36.3933 68.0896 36.5043C68.0706 36.6154 68.0238 36.7198 67.9536 36.8079Z" fill="#E4897B"/>
<path opacity="0.2" d="M67.853 34.1642C67.7757 34.4246 67.7156 34.6899 67.673 34.9581C66.7918 34.6247 66.0138 33.5662 66.0138 33.5662L67.853 34.1642Z" fill="black"/>
<path d="M66.8739 28.7128C68.5225 28.5487 69.1444 29.3796 69.4329 31.068C69.7954 33.1851 69.4752 34.7358 67.3661 34.4871C64.5133 34.1377 64.1322 28.9853 66.8739 28.7128Z" fill="#E4897B"/>
<path d="M68.3558 31.0812C68.5127 31.3154 68.6976 31.5296 68.9063 31.719C68.8645 31.7921 68.8034 31.8523 68.7296 31.8929C68.6558 31.9335 68.5723 31.953 68.4881 31.9492L68.3558 31.0812Z" fill="#DE5753"/>
<path d="M67.3317 31.0468C67.3502 31.1818 67.2893 31.3115 67.1994 31.3115C67.1094 31.3115 67.0221 31.2215 67.0062 31.0865C66.9903 30.9516 67.0485 30.8219 67.1385 30.8219C67.2285 30.8219 67.3158 30.9119 67.3317 31.0468Z" fill="#263238"/>
<path d="M67.1014 30.8324L67.382 30.6816C67.382 30.6816 67.2655 30.9462 67.1014 30.8324Z" fill="#263238"/>
<path d="M69.0121 30.8113C69.028 30.9463 68.9697 31.0759 68.8771 31.0759C68.7845 31.0759 68.7025 30.9886 68.6839 30.851C68.6654 30.7134 68.7289 30.5864 68.8189 30.5864C68.9089 30.5864 68.9936 30.6763 69.0121 30.8113Z" fill="#263238"/>
<path d="M68.7819 30.5996L69.0624 30.4461C69.0624 30.4461 68.9459 30.7134 68.7819 30.5996Z" fill="#263238"/>
<path d="M66.5113 30.3243C66.4925 30.3244 66.4741 30.3189 66.4584 30.3084C66.4378 30.294 66.4236 30.2722 66.4187 30.2476C66.4138 30.2229 66.4185 30.1974 66.4319 30.1761C66.5235 30.0596 66.6411 29.9661 66.7753 29.9032C66.9094 29.8402 67.0565 29.8096 67.2046 29.8136C67.2301 29.8143 67.2544 29.8249 67.2722 29.8432C67.29 29.8615 67.2999 29.886 67.2999 29.9115C67.2968 29.9363 67.285 29.9593 67.2666 29.9762C67.2482 29.9932 67.2244 30.0031 67.1993 30.0041C67.0836 30.0021 66.9688 30.0259 66.8635 30.074C66.7582 30.1221 66.665 30.1932 66.5907 30.282C66.5823 30.2954 66.5706 30.3064 66.5567 30.3138C66.5427 30.3212 66.5271 30.3249 66.5113 30.3243Z" fill="#263238"/>
<path d="M69.0677 29.8852C69.0529 29.8891 69.0374 29.8891 69.0227 29.8852C68.9367 29.8304 68.8394 29.7958 68.7381 29.7839C68.6369 29.772 68.5342 29.7831 68.4379 29.8164C68.415 29.8276 68.3887 29.8293 68.3646 29.8211C68.3406 29.8129 68.3207 29.7955 68.3095 29.7727C68.2983 29.7499 68.2966 29.7235 68.3048 29.6995C68.3129 29.6754 68.3304 29.6556 68.3532 29.6443C68.4768 29.5972 68.6096 29.5792 68.7413 29.5916C68.8729 29.604 69 29.6465 69.1127 29.7158C69.1239 29.7216 69.1338 29.7297 69.1418 29.7394C69.1499 29.7491 69.1559 29.7603 69.1596 29.7723C69.1633 29.7844 69.1646 29.7971 69.1633 29.8096C69.1621 29.8222 69.1584 29.8344 69.1524 29.8455C69.1427 29.8586 69.1299 29.8691 69.1151 29.8761C69.1003 29.883 69.084 29.8861 69.0677 29.8852Z" fill="#263238"/>
<path d="M68.3135 32.6214C68.2532 32.8154 68.2072 33.0135 68.1758 33.2142C68.1414 33.2142 68.1044 33.2142 68.07 33.2142C67.5831 33.2142 67.3581 33.0528 67.2576 32.8755C67.2093 32.7878 67.1829 32.6897 67.1808 32.5897C67.173 32.5335 67.173 32.4765 67.1808 32.4203C67.4806 32.5536 67.8054 32.6213 68.1335 32.6188C68.2473 32.6241 68.3135 32.6214 68.3135 32.6214Z" fill="#263238"/>
<path d="M68.1467 32.6188L68.1017 32.7934C67.6466 32.7934 67.3237 32.7273 67.1808 32.5897C67.173 32.5335 67.173 32.4765 67.1808 32.4203C67.4847 32.5555 67.8142 32.6232 68.1467 32.6188Z" fill="white"/>
<path d="M68.07 33.2142C67.5831 33.2142 67.3581 33.0528 67.2576 32.8755C67.4389 32.8815 67.6178 32.9182 67.7868 32.984C67.9036 33.0282 68.0029 33.109 68.07 33.2142Z" fill="#DE5753"/>
<path d="M65.3443 31.674C65.3443 31.674 65.982 30.2397 65.7624 29.205C65.7624 29.205 68.901 27.5431 69.3905 30.8484C69.3905 30.8484 69.417 27.8686 66.5748 28.0829C63.7327 28.2973 64.1534 32.452 65.7439 33.5423C65.7439 33.5423 64.9526 32.5685 65.3443 31.674Z" fill="#263238"/>
<path d="M65.6486 31.9942C65.6314 31.9006 65.5959 31.8112 65.5442 31.7313C65.4924 31.6513 65.4255 31.5823 65.3471 31.5283C65.2687 31.4742 65.1804 31.4361 65.0873 31.4162C64.9942 31.3962 64.8981 31.3948 64.8044 31.412C64.299 31.5179 64.1587 32.5923 65.4554 32.7193C65.6433 32.7352 65.728 32.5499 65.6486 31.9942Z" fill="#E4897B"/>
<path d="M70.8936 36.718C70.8154 36.7603 70.7303 36.7881 70.6422 36.8001C70.6176 36.8028 70.5928 36.8028 70.5681 36.8001H63.1584C63.1082 36.7977 63.0585 36.7897 63.0102 36.7763H62.989C62.9356 36.7588 62.8841 36.7358 62.8355 36.7075C62.8018 36.6894 62.7699 36.6681 62.7403 36.6439C62.6781 36.5959 62.6244 36.5377 62.5815 36.4719C62.5577 36.3555 62.5338 36.2338 62.5074 36.112C63.0367 36.0221 63.5448 35.9506 64.0687 35.903C64.4551 35.8659 64.8441 35.8421 65.2358 35.8289C65.4236 35.8289 65.6142 35.8289 65.8021 35.813C66.4425 35.813 67.0856 35.813 67.7233 35.8765L68.1335 35.9136C68.7342 35.9876 69.3693 36.1041 69.8669 36.2046C70.3644 36.3052 70.7772 36.4005 70.7772 36.4005C70.7772 36.4005 70.8486 36.4269 70.8936 36.718Z" fill="#E4897B"/>
<path d="M64.4789 36.808H63.1558C63.1056 36.8056 63.0559 36.7976 63.0076 36.7841H62.9864C62.9329 36.7667 62.8815 36.7436 62.8329 36.7153C62.7992 36.6973 62.7673 36.676 62.7376 36.6518C62.6755 36.6037 62.6218 36.5456 62.5789 36.4798C62.5061 36.3713 62.4641 36.2451 62.4571 36.1146L63.9285 35.6568C63.9285 35.6568 63.9814 35.7468 64.0661 35.9214C64.1508 36.0961 64.3228 36.4189 64.4789 36.808Z" fill="white"/>
<path d="M71.2139 36.3845C71.2148 36.3924 71.2148 36.4004 71.2139 36.4083C71.199 36.4359 71.1822 36.4624 71.1636 36.4877C71.0948 36.5843 71.0041 36.6632 70.8989 36.7179C70.8208 36.7601 70.7356 36.7879 70.6475 36.7999C70.6229 36.8027 70.5981 36.8027 70.5734 36.7999H69.3746C69.3297 36.3845 69.2847 35.8525 69.2847 35.8525L71.2139 36.3845Z" fill="white"/>
<path d="M66.8738 28.7128C66.8738 28.7128 67.1941 30.8061 65.2675 31.4756C62.9414 32.2854 62.8276 34.6988 64.9129 35.2863C64.9129 35.2863 62.7958 34.7835 62.5656 33.3227C62.3354 31.8619 63.812 29.8666 63.812 29.8666C63.812 29.8666 63.3172 28.5937 65.204 27.8977C66.2678 27.5061 66.8738 28.7128 66.8738 28.7128Z" fill="#263238"/>
<path d="M66.6304 30.6764C66.6199 30.6788 66.6091 30.6788 66.5986 30.6764C66.5837 30.6675 66.5726 30.6533 66.5677 30.6366C66.5628 30.6199 66.5644 30.602 66.5722 30.5864C67.3529 29.1891 66.6913 28.5275 66.6622 28.4984C66.65 28.4861 66.6432 28.4694 66.6432 28.4521C66.6432 28.4348 66.65 28.4182 66.6622 28.4058C66.675 28.3935 66.692 28.3867 66.7098 28.3867C66.7275 28.3867 66.7446 28.3935 66.7574 28.4058C66.7892 28.4376 67.5249 29.16 66.6913 30.6526C66.6839 30.6613 66.6745 30.668 66.6638 30.6721C66.6532 30.6763 66.6417 30.6778 66.6304 30.6764Z" fill="#263238"/>
<path d="M70.0865 34.8603C70.0776 34.8601 70.0687 34.8582 70.0605 34.8546C70.0524 34.8509 70.045 34.8457 70.0389 34.8391C70.0326 34.8331 70.0275 34.826 70.0241 34.818C70.0206 34.81 70.0188 34.8015 70.0188 34.7928C70.0188 34.7841 70.0206 34.7755 70.0241 34.7675C70.0275 34.7596 70.0326 34.7524 70.0389 34.7465C70.2484 34.5632 70.416 34.3368 70.5301 34.0829C70.6443 33.829 70.7024 33.5535 70.7005 33.2751C70.6661 32.2377 69.7081 31.4041 69.7002 31.3962C69.6938 31.3903 69.6888 31.3831 69.6853 31.3751C69.6819 31.3672 69.6801 31.3586 69.6801 31.3499C69.6801 31.3412 69.6819 31.3326 69.6853 31.3247C69.6888 31.3167 69.6938 31.3095 69.7002 31.3036C69.7125 31.2915 69.7292 31.2847 69.7465 31.2847C69.7638 31.2847 69.7804 31.2915 69.7928 31.3036C69.8351 31.3406 70.8037 32.1822 70.8513 33.2777C70.8541 33.5747 70.7929 33.8688 70.6719 34.1401C70.5509 34.4113 70.3729 34.6533 70.15 34.8497C70.1415 34.8572 70.131 34.8622 70.1198 34.8641C70.1086 34.8659 70.097 34.8646 70.0865 34.8603Z" fill="#263238"/>
<path opacity="0.2" d="M63.6533 8.34912H36.0838C35.6912 8.34982 35.3149 8.50626 35.0376 8.78411C34.7602 9.06195 34.6045 9.43849 34.6045 9.83107V19.7972C34.6045 20.1898 34.7602 20.5663 35.0376 20.8441C35.3149 21.122 35.6912 21.2784 36.0838 21.2791H50.0617L52.3402 25.4736L51.8824 21.2791H63.6427C64.0358 21.2791 64.4127 21.123 64.6906 20.8451C64.9686 20.5672 65.1247 20.1902 65.1247 19.7972V9.83107C65.1247 9.43986 64.97 9.06452 64.6944 8.7869C64.4187 8.50928 64.0445 8.35192 63.6533 8.34912Z" fill="black"/>
<path d="M64.4472 7.55518H36.8777C36.4851 7.55588 36.1088 7.71232 35.8315 7.99016C35.5541 8.26801 35.3983 8.64455 35.3983 9.03712V19.0032C35.3983 19.3958 35.5541 19.7724 35.8315 20.0502C36.1088 20.328 36.4851 20.4845 36.8777 20.4852H50.8556L52.3402 25.4735L52.6763 20.4852H64.4366C64.8297 20.4852 65.2066 20.3291 65.4845 20.0511C65.7624 19.7732 65.9186 19.3963 65.9186 19.0032V9.03712C65.9186 8.64591 65.7639 8.27057 65.4883 7.99295C65.2126 7.71534 64.8384 7.55797 64.4472 7.55518Z" fill="#022162"/>
<path opacity="0.7" d="M46.3674 10.3551V17.6854C46.3689 17.6951 46.3689 17.7049 46.3674 17.7145C46.3641 17.8272 46.3352 17.9376 46.2827 18.0374C46.2679 18.065 46.2511 18.0916 46.2325 18.1168C46.1398 18.2503 46.0059 18.3497 45.8514 18.3999C45.8092 18.4137 45.7658 18.4234 45.7217 18.4291C45.6971 18.4318 45.6722 18.4318 45.6476 18.4291H38.2379C38.1877 18.4267 38.138 18.4187 38.0897 18.4052H38.0685C38.015 18.3878 37.9636 18.3647 37.915 18.3364C37.8813 18.3184 37.8494 18.2971 37.8197 18.2729C37.7723 18.236 37.7296 18.1934 37.6927 18.1459C37.6677 18.114 37.6464 18.0794 37.6292 18.0427C37.5675 17.9338 37.5355 17.8106 37.5366 17.6854V10.3551C37.5365 10.1598 37.6124 9.97217 37.7482 9.83189C37.8841 9.69161 38.0692 9.6097 38.2643 9.60352H45.6159C45.7146 9.60352 45.8123 9.62295 45.9035 9.66072C45.9947 9.69849 46.0775 9.75385 46.1473 9.82364C46.2171 9.89343 46.2724 9.97628 46.3102 10.0675C46.348 10.1587 46.3674 10.2564 46.3674 10.3551Z" fill="white"/>
<path d="M62.1317 12.7393H49.6595C49.5729 12.7393 49.4898 12.7051 49.4284 12.6442C49.3669 12.5832 49.332 12.5004 49.3313 12.4138C49.3313 12.3268 49.3659 12.2433 49.4274 12.1818C49.489 12.1203 49.5724 12.0857 49.6595 12.0857H62.1317C62.2187 12.0857 62.3022 12.1203 62.3637 12.1818C62.4252 12.2433 62.4598 12.3268 62.4598 12.4138C62.4591 12.5004 62.4242 12.5832 62.3628 12.6442C62.3013 12.7051 62.2182 12.7393 62.1317 12.7393Z" fill="white"/>
<path d="M58.1251 9.6035H49.7971C49.7331 9.59867 49.6689 9.60709 49.6084 9.62824C49.5478 9.64939 49.4923 9.68281 49.4453 9.72641C49.3983 9.77001 49.3608 9.82285 49.3351 9.88161C49.3095 9.94038 49.2962 10.0038 49.2962 10.0679C49.2962 10.132 49.3095 10.1955 49.3351 10.2542C49.3608 10.313 49.3983 10.3658 49.4453 10.4094C49.4923 10.453 49.5478 10.4865 49.6084 10.5076C49.6689 10.5288 49.7331 10.5372 49.7971 10.5324H58.1251C58.189 10.5372 58.2533 10.5288 58.3138 10.5076C58.3743 10.4865 58.4299 10.453 58.4769 10.4094C58.5239 10.3658 58.5614 10.313 58.587 10.2542C58.6127 10.1955 58.6259 10.132 58.6259 10.0679C58.6259 10.0038 58.6127 9.94038 58.587 9.88161C58.5614 9.82285 58.5239 9.77001 58.4769 9.72641C58.4299 9.68281 58.3743 9.64939 58.3138 9.62824C58.2533 9.60709 58.189 9.59867 58.1251 9.6035Z" fill="white"/>
<path d="M57.1036 14.0837H49.6595C49.5727 14.083 49.4896 14.0482 49.4282 13.9868C49.3668 13.9255 49.332 13.8424 49.3313 13.7556C49.332 13.6688 49.3668 13.5857 49.4282 13.5243C49.4896 13.4629 49.5727 13.4281 49.6595 13.4274H57.1036C57.1904 13.4281 57.2735 13.4629 57.3349 13.5243C57.3963 13.5857 57.4311 13.6688 57.4318 13.7556C57.4311 13.8424 57.3963 13.9255 57.3349 13.9868C57.2735 14.0482 57.1904 14.083 57.1036 14.0837Z" fill="white"/>
<path d="M44.9305 18.4369H39.8495C39.8363 18.3138 39.8363 18.1896 39.8495 18.0665C39.8495 18.0294 39.8495 17.995 39.8495 17.9632C39.8538 17.9338 39.86 17.9046 39.868 17.8759C39.8868 17.7421 39.9359 17.6144 40.0116 17.5025C40.0872 17.3906 40.1875 17.2975 40.3047 17.2302C40.4052 17.2064 40.5269 17.1826 40.6646 17.1561L40.9027 17.1164L41.1435 17.0794C41.6595 17.0031 42.1807 16.9677 42.7022 16.9735C42.8685 16.9758 43.0345 16.9864 43.1997 17.0053C43.2478 17.0095 43.2955 17.0166 43.3426 17.0264C43.6106 17.0574 43.8683 17.1478 44.0969 17.2911C44.2622 17.4138 44.4069 17.5621 44.5256 17.7304C44.5945 17.8246 44.6581 17.9227 44.7161 18.0241C44.7971 18.1565 44.8687 18.2945 44.9305 18.4369Z" fill="#263238"/>
<path d="M46.3648 17.7144C46.3615 17.8271 46.3325 17.9375 46.2801 18.0373C46.2652 18.0649 46.2484 18.0914 46.2298 18.1167C46.1371 18.2502 46.0033 18.3496 45.8487 18.3998C45.8065 18.4136 45.7631 18.4233 45.7191 18.4289C45.6944 18.4317 45.6696 18.4317 45.645 18.4289H38.2352C38.1851 18.4266 38.1354 18.4186 38.087 18.4051H38.0658C38.0124 18.3877 37.9609 18.3646 37.9124 18.3363C37.8786 18.3183 37.8467 18.297 37.8171 18.2728C37.7696 18.2359 37.727 18.1933 37.6901 18.1458C38.0209 18.114 38.484 18.0717 39.045 18.0267L39.5743 17.9844L39.7674 17.9685H39.8521L40.4105 17.9288C40.4502 17.9288 40.4925 17.9288 40.5375 17.9288C41.0668 17.8891 41.6596 17.8547 42.2656 17.8229L43.2341 17.7806L43.9143 17.7568H44.118H44.3191H44.5335H44.6155H44.9331C45.4227 17.7118 45.8964 17.7091 46.3648 17.7144Z" fill="#263238"/>
<path opacity="0.8" d="M46.3648 17.7144C46.3615 17.8271 46.3325 17.9375 46.2801 18.0373C46.2652 18.0649 46.2484 18.0914 46.2298 18.1167C46.1371 18.2502 46.0033 18.3496 45.8487 18.3998C45.8065 18.4136 45.7631 18.4233 45.7191 18.4289C45.6944 18.4317 45.6696 18.4317 45.645 18.4289H38.2352C38.1851 18.4266 38.1354 18.4186 38.087 18.4051H38.0658C38.0124 18.3877 37.9609 18.3646 37.9124 18.3363C37.8786 18.3183 37.8467 18.297 37.8171 18.2728C37.7696 18.2359 37.727 18.1933 37.6901 18.1458C38.0209 18.114 38.484 18.0717 39.045 18.0267L39.5743 17.9844L39.7674 17.9685H39.8521L40.4105 17.9288C40.4502 17.9288 40.4925 17.9288 40.5375 17.9288C41.0668 17.8891 41.6596 17.8547 42.2656 17.8229L43.2341 17.7806L43.9143 17.7568H44.118H44.3191H44.5335H44.6155H44.9331C45.4227 17.7118 45.8964 17.7091 46.3648 17.7144Z" fill="white"/>
<path opacity="0.2" d="M41.3976 14.7188C41.3764 16.2299 42.5805 16.7433 43.1786 16.8756C43.1215 16.5926 43.1215 16.3011 43.1786 16.0182L41.3976 14.7188Z" fill="black"/>
<path d="M44.5256 18.437H40.3814L39.8521 18.0665L39.7516 17.9951L39.7807 17.9686L39.8839 17.876L40.3179 17.4843L40.6804 17.1562L40.9318 16.9286L40.9689 16.9524L41.1621 17.0794L42.2841 17.8098L43.0383 18.3047L43.2527 17.7754L43.4114 17.3732H43.4353L44.1365 17.7304L44.208 17.7675C44.2655 17.7971 44.3174 17.8365 44.3615 17.8839C44.4075 17.9324 44.4442 17.9889 44.47 18.0506C44.4773 18.066 44.4835 18.082 44.4885 18.0983C44.5287 18.2064 44.5415 18.3228 44.5256 18.437Z" fill="white"/>
<path d="M44.4564 11.0652C45.2079 11.5019 45.3746 13.3358 44.3373 14.5399C43.2999 15.7439 42.2625 11.3643 42.2625 11.3643C42.2625 11.3643 43.9774 10.7874 44.4564 11.0652Z" fill="#263238"/>
<path d="M41.1511 17.2762C41.5053 17.5996 41.9554 17.7985 42.433 17.8429C42.9106 17.8874 43.3896 17.7748 43.7974 17.5223C44.3313 17.2017 44.723 16.6898 44.893 16.0907C44.9168 16.0086 44.9353 15.924 44.9539 15.826C45.2185 14.2382 44.8242 11.6739 43.0776 11.0891C42.6922 10.9575 42.2795 10.9268 41.8789 11.0002C41.4783 11.0735 41.1032 11.2483 40.7895 11.5079C40.4757 11.7676 40.2337 12.1033 40.0867 12.4831C39.9397 12.8629 39.8925 13.274 39.9496 13.6772C40.1719 15.4185 40.2143 16.44 41.1511 17.2762Z" fill="#E4897B"/>
<path d="M42.6278 14.008C42.6278 14.1482 42.7177 14.2726 42.8104 14.2514C42.903 14.2303 42.9691 14.1271 42.9612 13.9868C42.9533 13.8466 42.8686 13.7381 42.7786 13.7433C42.6886 13.7486 42.6198 13.8651 42.6278 14.008Z" fill="#263238"/>
<path d="M44.2261 13.9048C44.2261 14.0477 44.3187 14.1694 44.4114 14.1509C44.504 14.1324 44.5701 14.0239 44.5622 13.8863C44.5543 13.7487 44.4696 13.6216 44.3769 13.6402C44.2843 13.6587 44.2182 13.7725 44.2261 13.9048Z" fill="#263238"/>
<path d="M43.7233 14.0079C43.9187 14.4298 44.1716 14.8226 44.4749 15.175C44.382 15.2505 44.2737 15.3049 44.1576 15.3341C44.0415 15.3634 43.9203 15.3669 43.8027 15.3443L43.7233 14.0079Z" fill="#DE5753"/>
<path d="M44.7739 13.1849C44.7611 13.1926 44.7465 13.1967 44.7316 13.1967C44.7167 13.1967 44.702 13.1926 44.6892 13.1849C44.5983 13.1337 44.4968 13.1042 44.3926 13.0987C44.2884 13.0932 44.1843 13.1118 44.0885 13.1532C44.0791 13.1595 44.0684 13.1638 44.0573 13.1658C44.0461 13.1679 44.0346 13.1675 44.0236 13.1649C44.0125 13.1622 44.0021 13.1573 43.9931 13.1504C43.984 13.1436 43.9765 13.1349 43.971 13.1249C43.9655 13.115 43.9621 13.104 43.961 13.0927C43.96 13.0814 43.9613 13.07 43.9649 13.0592C43.9684 13.0484 43.9742 13.0385 43.9818 13.0301C43.9895 13.0217 43.9988 13.0149 44.0091 13.0103C44.1288 12.9552 44.2598 12.9294 44.3914 12.9349C44.523 12.9404 44.6514 12.9771 44.766 13.042C44.7758 13.0468 44.7845 13.0535 44.7917 13.0617C44.7989 13.0699 44.8044 13.0795 44.8078 13.0898C44.8113 13.1002 44.8126 13.1111 44.8118 13.122C44.811 13.1328 44.808 13.1435 44.803 13.1532C44.7949 13.1651 44.7851 13.1758 44.7739 13.1849Z" fill="#263238"/>
<path d="M42.2705 13.3887C42.2549 13.3928 42.2385 13.3928 42.2228 13.3887C42.2152 13.381 42.2091 13.372 42.2049 13.362C42.2008 13.352 42.1986 13.3413 42.1986 13.3304C42.1986 13.3196 42.2008 13.3089 42.2049 13.2989C42.2091 13.2889 42.2152 13.2799 42.2228 13.2722C42.3159 13.1783 42.4299 13.108 42.5556 13.067C42.6812 13.0261 42.8148 13.0157 42.9453 13.0367C42.967 13.0418 42.9858 13.0551 42.9977 13.074C43.0096 13.0928 43.0136 13.1155 43.0088 13.1373C43.0032 13.1585 42.9896 13.1766 42.9708 13.188C42.9521 13.1993 42.9296 13.203 42.9083 13.1981C42.8047 13.1849 42.6996 13.1957 42.6009 13.2297C42.5023 13.2637 42.4127 13.3199 42.3393 13.394C42.3282 13.3983 42.3162 13.4001 42.3043 13.3992C42.2924 13.3983 42.2808 13.3947 42.2705 13.3887Z" fill="#263238"/>
<path d="M41.0955 11.441L41.1537 11.7056C40.9208 11.867 40.9182 12.6636 41.069 12.952C41.3866 13.566 41.1326 14.6007 40.6853 15.0532C40.6853 15.0532 40.6403 14.7886 40.4207 14.8706C40.201 14.9527 40.4207 16.4029 40.95 17.0406C40.95 17.0406 40.1878 16.4928 39.6268 15.0188C39.0975 13.6533 38.9308 12.4889 39.161 11.912L41.0955 11.441Z" fill="#263238"/>
<path d="M39.2907 15.1644C39.5082 15.5453 39.868 15.8242 40.291 15.9398C40.852 16.088 41.1273 15.5825 40.9658 15.0559C40.8176 14.5902 40.3519 13.9339 39.7882 14.0239C39.6658 14.0433 39.5502 14.0932 39.4521 14.1691C39.354 14.2449 39.2766 14.3442 39.2271 14.4579C39.1775 14.5715 39.1574 14.6958 39.1685 14.8193C39.1796 14.9428 39.2216 15.0615 39.2907 15.1644Z" fill="#E4897B"/>
<path d="M43.7233 15.7995C43.6468 16.0073 43.5858 16.2205 43.5407 16.4373H43.4243C42.895 16.4082 42.6622 16.2203 42.5616 16.0218C42.516 15.9232 42.4933 15.8155 42.4954 15.7069C42.495 15.645 42.504 15.5835 42.5219 15.5243C42.8395 15.6847 43.1879 15.7749 43.5434 15.7889C43.6031 15.7957 43.6632 15.7992 43.7233 15.7995Z" fill="#263238"/>
<path d="M43.5434 15.7863L43.4851 15.9741C42.9876 15.945 42.6436 15.8577 42.4954 15.7095C42.495 15.6477 42.5039 15.5861 42.5219 15.5269C42.8399 15.6855 43.1882 15.7739 43.5434 15.7863Z" fill="white"/>
<path d="M43.4243 16.4399C42.895 16.4108 42.6621 16.2229 42.5616 16.0244C42.762 16.0393 42.9582 16.0894 43.1411 16.1726C43.2611 16.2299 43.3602 16.3233 43.4243 16.4399Z" fill="#DE5753"/>
<path d="M44.3293 15.8815C44.2271 15.7383 44.0792 15.634 43.91 15.5859C43.7407 15.5378 43.5601 15.5488 43.3978 15.6169C43.2259 15.419 42.988 15.2901 42.7283 15.2544C42.5563 15.2472 42.3847 15.2744 42.2234 15.3344C42.0621 15.3944 41.9143 15.4859 41.7888 15.6037C41.7575 15.6371 41.7284 15.6724 41.7015 15.7095C41.6186 15.8347 41.5586 15.9736 41.5242 16.1197C41.4399 16.4689 41.45 16.8342 41.5533 17.1782C41.6058 17.3735 41.7017 17.5544 41.8338 17.7075C41.9492 17.8389 42.0931 17.9421 42.2546 18.0092C42.3128 18.033 42.3684 18.0515 42.4266 18.0701C42.5914 18.1187 42.7631 18.1393 42.9347 18.1309C42.9797 18.1309 43.022 18.1309 43.067 18.1309C43.3017 18.1039 43.5267 18.0216 43.7235 17.891C43.9203 17.7604 44.0835 17.5851 44.1997 17.3794C44.2446 17.294 44.2836 17.2056 44.3161 17.1147C44.496 16.6331 44.5172 16.088 44.3293 15.8815ZM42.0482 15.8286C42.0723 15.7392 42.1195 15.6577 42.1849 15.5922C42.2504 15.5268 42.3319 15.4796 42.4213 15.4555C42.5856 15.4108 42.7589 15.4118 42.9226 15.4584C43.0863 15.5051 43.2342 15.5956 43.3502 15.7201C43.3502 15.7201 44.0938 15.4237 44.1944 16.2282C44.2949 17.0327 43.7498 17.4217 43.4296 17.2179C43.1094 17.0142 43.3819 16.649 43.3819 16.649L43.0326 16.5511C43.05 16.7327 42.998 16.9143 42.8871 17.0592L42.8633 17.0883C42.8298 17.1309 42.7876 17.1659 42.7396 17.1909C42.6916 17.216 42.6387 17.2305 42.5846 17.2335C42.5305 17.2365 42.4764 17.2279 42.4259 17.2083C42.3754 17.1888 42.3296 17.1587 42.2916 17.12C42.1188 16.9389 42.0149 16.7029 41.9979 16.4532C41.966 16.2439 41.9832 16.0301 42.0482 15.8286Z" fill="#263238"/>
<path d="M40.7435 11.9094C41.0108 11.724 41.3198 11.6075 41.6429 11.5701C41.966 11.5327 42.2934 11.5756 42.596 11.6951C43.5566 12.0285 43.8345 12.1291 44.1547 11.4119C44.4749 10.6947 43.9086 9.05137 42.6013 9.00109C41.294 8.95081 40.4974 10.6524 40.4974 10.6524C40.4974 10.6524 38.4412 11.4093 39.1478 13.3226L40.7435 11.9094Z" fill="#263238"/>
<path d="M37.6927 18.1459C37.6677 18.114 37.6464 18.0794 37.6292 18.0427L39.3731 17.7039L39.4578 17.688L39.5981 17.9844C39.6563 18.1035 39.7278 18.2491 39.8177 18.437H38.2537C38.2036 18.4346 38.1539 18.4266 38.1056 18.4131H38.0844C38.0309 18.3957 37.9795 18.3726 37.9309 18.3443C37.8972 18.3263 37.8653 18.305 37.8356 18.2808C37.7821 18.2426 37.734 18.1972 37.6927 18.1459Z" fill="#263238"/>
<path d="M46.3674 17.5796V17.6854C46.3689 17.6951 46.3689 17.7049 46.3674 17.7146C46.3641 17.8272 46.3351 17.9376 46.2827 18.0374C46.2679 18.065 46.2511 18.0916 46.2324 18.1168C46.1398 18.2503 46.0059 18.3497 45.8514 18.4C45.8092 18.4137 45.7657 18.4234 45.7217 18.4291C45.6971 18.4318 45.6722 18.4318 45.6476 18.4291H44.8802C44.8299 18.2729 44.7849 18.1327 44.7426 18.0136C44.7002 17.8945 44.6658 17.7966 44.6341 17.7172C44.5811 17.5769 44.5467 17.4949 44.5388 17.4764L46.3674 17.5796Z" fill="#263238"/>
<path d="M40.5931 18.437H38.783C38.8582 18.2923 38.9468 18.1549 39.0477 18.0268C39.145 17.9084 39.254 17.8003 39.3732 17.7039C39.6447 17.4637 39.9754 17.3002 40.3311 17.2302C40.3147 17.3177 40.3147 17.4074 40.3311 17.4949C40.356 17.6436 40.3914 17.7904 40.437 17.9341C40.4634 18.0771 40.5217 18.2596 40.5931 18.437Z" fill="#263238"/>
<path d="M45.8487 18.3999C45.8065 18.4137 45.7631 18.4234 45.7191 18.4291C45.6944 18.4318 45.6696 18.4318 45.645 18.4291H44.605C44.5679 18.3179 44.5309 18.2094 44.4912 18.1036C44.4861 18.0872 44.48 18.0713 44.4726 18.0559C44.4303 17.9421 44.3853 17.8336 44.335 17.7251C44.2698 17.5723 44.1965 17.423 44.1154 17.2779C44.2562 17.3352 44.394 17.3997 44.5282 17.4711C44.6473 17.5319 44.7928 17.6087 44.941 17.7066C45.2631 17.911 45.5668 18.143 45.8487 18.3999Z" fill="#263238"/>
<path opacity="0.2" d="M56.2859 48.7773H28.7189C28.3264 48.7773 27.9498 48.9331 27.672 49.2104C27.3941 49.4878 27.2377 49.864 27.237 50.2566V60.2254C27.2377 60.6179 27.3941 60.9942 27.672 61.2715C27.9498 61.5489 28.3264 61.7047 28.7189 61.7047H48.8682L51.5304 63.2713L50.7365 61.7047H56.2938C56.6864 61.7047 57.0629 61.5489 57.3408 61.2715C57.6186 60.9942 57.775 60.6179 57.7757 60.2254V50.2566C57.7754 50.0615 57.7366 49.8685 57.6614 49.6885C57.5863 49.5084 57.4764 49.345 57.338 49.2076C57.1995 49.0702 57.0353 48.9614 56.8548 48.8876C56.6743 48.8137 56.4809 48.7763 56.2859 48.7773Z" fill="black"/>
<path d="M57.0798 47.9834H29.5129C29.1203 47.9834 28.7437 48.1392 28.4659 48.4165C28.1881 48.6939 28.0316 49.0701 28.0309 49.4627V59.4315C28.0316 59.8241 28.1881 60.2003 28.4659 60.4777C28.7437 60.755 29.1203 60.9108 29.5129 60.9108H49.6621L51.5304 63.7768V60.9108H57.0877C57.4803 60.9108 57.8568 60.755 58.1347 60.4777C58.4125 60.2003 58.569 59.8241 58.5697 59.4315V49.4627C58.5693 49.2677 58.5305 49.0746 58.4553 48.8946C58.3802 48.7146 58.2703 48.5512 58.1319 48.4137C57.9935 48.2763 57.8293 48.1675 57.6487 48.0937C57.4682 48.0198 57.2748 47.9824 57.0798 47.9834Z" fill="#022162"/>
<path opacity="0.7" d="M38.9973 50.7832V58.1135C38.9973 58.2362 38.9673 58.357 38.91 58.4655C38.8951 58.4931 38.8783 58.5197 38.8597 58.5449C38.8007 58.6294 38.7249 58.7007 38.637 58.7545C38.5491 58.8082 38.451 58.8432 38.349 58.8572C38.3243 58.8599 38.2995 58.8599 38.2749 58.8572H30.8651C30.815 58.8548 30.7653 58.8468 30.7169 58.8333H30.6957C30.6423 58.8159 30.5908 58.7928 30.5423 58.7645C30.5085 58.7465 30.4766 58.7252 30.447 58.701C30.3583 58.6311 30.2866 58.5418 30.2376 58.44C30.1885 58.3382 30.1633 58.2265 30.1638 58.1135V50.7832C30.1637 50.5879 30.2396 50.4003 30.3755 50.26C30.5113 50.1197 30.6964 50.0378 30.8916 50.0316H38.2431C38.342 50.0313 38.44 50.0505 38.5315 50.0881C38.623 50.1257 38.7062 50.181 38.7762 50.2508C38.8463 50.3206 38.9019 50.4036 38.9398 50.495C38.9778 50.5863 38.9973 50.6843 38.9973 50.7832Z" fill="white"/>
<path d="M38.349 58.8572C38.3244 58.8599 38.2995 58.8599 38.2749 58.8572H37.8991V58.746H37.9229C38.0711 58.7566 38.2167 58.7906 38.3543 58.8466L38.349 58.8572Z" fill="#263238"/>
<path opacity="0.4" d="M38.349 58.8572C38.3244 58.8599 38.2995 58.8599 38.2749 58.8572H37.8991V58.746H37.9229C38.0711 58.7566 38.2167 58.7906 38.3543 58.8466L38.349 58.8572Z" fill="white"/>
<path d="M38.2723 58.8625H35.4036H31.7358L31.7543 58.8995C31.7463 58.8878 31.7392 58.8754 31.7332 58.8625H30.8784C31.1245 58.8228 31.3944 58.7831 31.6723 58.7513L31.8496 58.7302C32.0851 58.701 32.3259 58.6772 32.5641 58.6587H32.6303C33.059 58.6243 33.485 58.5978 33.9137 58.5793H34.0117C34.2154 58.5793 34.4165 58.5634 34.6177 58.5608C34.9167 58.5608 35.2157 58.5608 35.5148 58.5608H35.6868C35.9064 58.5608 36.1287 58.5608 36.3484 58.574L36.5945 58.5952C36.6659 58.5952 36.7347 58.6084 36.8062 58.6111C37.002 58.6322 37.1926 58.6561 37.3751 58.6825L37.6398 58.7222L37.7695 58.7434L37.8912 58.7619H37.9124C38.0252 58.7803 38.1354 58.8123 38.2405 58.8572L38.2723 58.8625Z" fill="#263238"/>
<path d="M36.6818 58.8652H35.4036H32.8896C32.7965 58.8009 32.7081 58.7301 32.625 58.6535L32.5085 58.545C32.682 58.3991 32.8235 58.2189 32.924 58.0157C33.2416 57.3912 33.1886 56.6158 33.1066 56.0627C33.0722 55.7981 33.0298 55.597 33.0193 55.4726C33.0181 55.4585 33.0181 55.4443 33.0193 55.4302C33.0193 55.3905 33.0193 55.3641 33.0351 55.3561L33.0854 55.3747L33.2098 55.4197L33.2707 55.4408L35.3719 56.195C35.356 56.2638 35.3427 56.3326 35.3295 56.4014C35.3163 56.4703 35.303 56.5417 35.2951 56.6105L35.2792 56.7402C35.2687 56.8333 35.2634 56.927 35.2634 57.0207C35.2598 57.1994 35.282 57.3776 35.3295 57.55C35.3758 57.7237 35.4608 57.8848 35.5783 58.021C35.613 58.0645 35.652 58.1044 35.6947 58.1401C35.943 58.3401 36.238 58.474 36.5521 58.5291C36.566 58.5521 36.5784 58.5759 36.5892 58.6006C36.6336 58.6834 36.6648 58.7727 36.6818 58.8652Z" fill="#EBB376"/>
<path opacity="0.2" d="M35.3348 57.5314C34.5409 57.3673 33.6359 56.8169 33.3977 56.1394C33.3053 55.9058 33.244 55.6612 33.2151 55.4117L35.3771 56.1871C35.2529 56.6249 35.2384 57.0866 35.3348 57.5314Z" fill="black"/>
<path d="M32.7255 52.8394C32.8711 54.5384 32.8737 55.5413 33.7602 56.3882C35.0834 57.669 37.1687 56.8354 37.5366 55.1232C37.8647 53.5831 37.5657 51.0611 35.88 50.426C35.305 50.2036 34.6654 50.218 34.1011 50.4659C33.5367 50.7139 33.0935 51.1753 32.8684 51.7491C32.7364 52.0965 32.6874 52.4698 32.7255 52.8394Z" fill="#EBB376"/>
<path d="M35.3242 53.2497C35.3242 53.3873 35.4009 53.4958 35.4936 53.4958C35.5862 53.4958 35.655 53.3767 35.6523 53.2311C35.6497 53.0856 35.5703 52.9824 35.4803 52.985C35.3904 52.9877 35.3216 53.1068 35.3242 53.2497Z" fill="#263238"/>
<path d="M36.8908 53.2073C36.8908 53.3449 36.9702 53.4561 37.0602 53.4534C37.1502 53.4508 37.2216 53.337 37.219 53.1888C37.2163 53.0406 37.1396 52.94 37.0496 52.9427C36.9597 52.9453 36.8882 53.0776 36.8908 53.2073Z" fill="#263238"/>
<path d="M36.3933 53.2893C36.5704 53.7088 36.8037 54.1023 37.0867 54.459C36.9935 54.5296 36.8859 54.5788 36.7716 54.6031C36.6572 54.6273 36.5389 54.626 36.4251 54.5992L36.3933 53.2893Z" fill="#D58745"/>
<path d="M34.8241 52.7521C34.8385 52.7544 34.8534 52.7526 34.8669 52.747C34.8805 52.7414 34.8922 52.7322 34.9008 52.7203C34.9595 52.6336 35.0383 52.5624 35.1305 52.5126C35.2226 52.4629 35.3254 52.4361 35.4301 52.4345C35.4517 52.4346 35.4724 52.4264 35.4882 52.4116C35.5039 52.3969 35.5134 52.3767 35.5148 52.3551C35.5142 52.3337 35.5058 52.3133 35.4912 52.2977C35.4765 52.2821 35.4567 52.2724 35.4354 52.2704C35.3062 52.2721 35.1794 52.3053 35.0659 52.3671C34.9525 52.4289 34.8558 52.5174 34.7844 52.6251C34.7768 52.6322 34.7709 52.6408 34.7668 52.6504C34.7627 52.66 34.7606 52.6702 34.7606 52.6806C34.7606 52.691 34.7627 52.7013 34.7668 52.7109C34.7709 52.7204 34.7768 52.729 34.7844 52.7362L34.8241 52.7521Z" fill="#263238"/>
<path d="M35.7926 55.2476C35.5922 55.2356 35.3977 55.1752 35.2258 55.0715C35.0538 54.9678 34.9097 54.8239 34.8056 54.6522C34.8007 54.642 34.8 54.6303 34.8034 54.6195C34.8069 54.6087 34.8142 54.5996 34.8241 54.594C34.8336 54.5891 34.8447 54.588 34.855 54.591C34.8653 54.5939 34.8741 54.6007 34.8797 54.6099C34.9794 54.7664 35.1144 54.8975 35.2739 54.9926C35.4333 55.0877 35.6128 55.1443 35.7979 55.1577C35.8035 55.158 35.8089 55.1594 35.8139 55.1619C35.819 55.1643 35.8234 55.1677 35.8271 55.1719C35.8308 55.1761 35.8336 55.181 35.8354 55.1862C35.8372 55.1915 35.838 55.1971 35.8376 55.2027C35.8376 55.2082 35.8365 55.2137 35.8344 55.2189C35.8323 55.224 35.8292 55.2287 35.8252 55.2326C35.8213 55.2365 35.8166 55.2397 35.8115 55.2418C35.8063 55.2439 35.8008 55.245 35.7953 55.245L35.7926 55.2476Z" fill="#263238"/>
<path d="M37.5498 52.6621C37.5573 52.6653 37.5654 52.667 37.5736 52.667C37.5818 52.667 37.5899 52.6653 37.5974 52.6621C37.6071 52.6576 37.6158 52.6512 37.623 52.6432C37.6302 52.6352 37.6356 52.6259 37.6391 52.6158C37.6426 52.6056 37.6439 52.5949 37.6431 52.5842C37.6423 52.5735 37.6394 52.5631 37.6345 52.5536C37.5777 52.437 37.4937 52.3358 37.3896 52.2584C37.2855 52.1811 37.1644 52.1298 37.0364 52.109C37.0148 52.1075 36.9934 52.1144 36.9766 52.1281C36.9599 52.1419 36.9491 52.1616 36.9464 52.1831C36.9449 52.2045 36.9519 52.2255 36.9657 52.2419C36.9796 52.2582 36.9992 52.2684 37.0205 52.2705C37.1211 52.2901 37.2158 52.3328 37.2971 52.3952C37.3784 52.4577 37.4441 52.5382 37.4889 52.6304C37.4958 52.6402 37.5049 52.6482 37.5155 52.6537C37.5261 52.6592 37.5378 52.6621 37.5498 52.6621Z" fill="#263238"/>
<path d="M33.2045 54.2288C33.2045 54.2288 34.0884 52.7018 33.6438 51.4686C34.2163 51.3125 34.8261 51.3709 35.3586 51.6327C35.3425 51.4348 35.3034 51.2394 35.2422 51.0505C35.2422 51.0505 36.7638 50.9526 37.6424 51.8153C37.5596 51.2545 37.2945 50.7366 36.8882 50.3413C37.1074 50.2752 37.3412 50.2752 37.5604 50.3413C37.5604 50.3413 36.1763 49.2272 34.0037 49.8623C31.831 50.4974 31.1536 51.8153 31.6511 53.7524C32.1486 55.6896 33.1965 56.113 33.1965 56.113C33.1965 56.113 32.7625 54.639 32.8578 54.3082C32.9531 53.9774 33.2045 54.2288 33.2045 54.2288Z" fill="#263238"/>
<path d="M32.0057 54.7368C32.245 55.0926 32.6148 55.3398 33.0351 55.4249C33.5935 55.5334 33.829 55.0226 33.6332 54.5172C33.4585 54.0726 32.9584 53.4586 32.4159 53.5883C32.2977 53.6158 32.1882 53.6726 32.0977 53.7533C32.0071 53.8341 31.9382 53.9363 31.8974 54.0506C31.8566 54.1649 31.8451 54.2876 31.864 54.4075C31.8829 54.5274 31.9317 54.6406 32.0057 54.7368Z" fill="#EBB376"/>
<path d="M34.6521 58.8281L34.75 58.8651H31.7331C31.712 58.8281 31.6935 58.791 31.6749 58.7513L32.6435 57.8224C32.7368 57.8939 32.834 57.9601 32.9346 58.0209C33.2813 58.2308 33.642 58.4165 34.0143 58.5767C34.1254 58.6269 34.2419 58.6746 34.3663 58.7249L34.6521 58.8281Z" fill="#263238"/>
<path d="M36.8088 58.6005V58.8652H35.4036L35.4222 58.8228C35.4603 58.7376 35.4904 58.649 35.5121 58.5582C35.5134 58.553 35.5134 58.5475 35.5121 58.5423C35.5254 58.4841 35.5386 58.4232 35.5492 58.3544C35.5658 58.236 35.5746 58.1167 35.5756 57.9972C35.5756 57.9098 35.5756 57.8146 35.5756 57.7114L36.8088 58.6005Z" fill="#263238"/>
<path opacity="0.2" d="M35.6894 58.5503C35.6706 58.642 35.6404 58.7309 35.5995 58.815V58.8547H35.4036L35.4248 58.8123C35.463 58.7271 35.4931 58.6385 35.5148 58.5477C35.5148 58.5477 35.5148 58.5477 35.5148 58.5318C35.5309 58.47 35.5433 58.4072 35.5518 58.3439C35.5706 58.2266 35.5803 58.1081 35.5809 57.9893C35.5809 57.8993 35.5809 57.8041 35.5809 57.7035C35.6525 57.8275 35.6959 57.9657 35.708 58.1084C35.7259 58.2557 35.7196 58.405 35.6894 58.5503Z" fill="black"/>
<path d="M54.7616 53.1676H42.2841C42.2411 53.1676 42.1986 53.1591 42.1589 53.1425C42.1193 53.126 42.0833 53.1018 42.053 53.0713C42.0227 53.0408 41.9988 53.0046 41.9826 52.9648C41.9664 52.925 41.9582 52.8824 41.9586 52.8394C41.9586 52.7531 41.9929 52.6703 42.0539 52.6093C42.115 52.5482 42.1978 52.5139 42.2841 52.5139H54.7536C54.8402 52.5139 54.9233 52.5481 54.9848 52.6091C55.0462 52.6701 55.0811 52.7528 55.0818 52.8394C55.0818 52.9251 55.0483 53.0074 54.9885 53.0687C54.9287 53.13 54.8472 53.1655 54.7616 53.1676Z" fill="white"/>
<path d="M50.7524 50.0317H42.4296C42.3125 50.0405 42.2031 50.0933 42.1232 50.1794C42.0433 50.2655 41.999 50.3786 41.999 50.4961C41.999 50.6135 42.0433 50.7267 42.1232 50.8128C42.2031 50.8989 42.3125 50.9517 42.4296 50.9605H50.7524C50.8163 50.9654 50.8806 50.9569 50.9411 50.9358C51.0016 50.9146 51.0571 50.8812 51.1041 50.8376C51.1512 50.794 51.1887 50.7412 51.2143 50.6824C51.24 50.6236 51.2532 50.5602 51.2532 50.4961C51.2532 50.432 51.24 50.3685 51.2143 50.3098C51.1887 50.251 51.1512 50.1982 51.1041 50.1546C51.0571 50.111 51.0016 50.0776 50.9411 50.0564C50.8806 50.0353 50.8163 50.0268 50.7524 50.0317Z" fill="white"/>
<path d="M49.7335 54.5145H42.2841C42.1978 54.5145 42.115 54.4803 42.0539 54.4192C41.9929 54.3582 41.9586 54.2754 41.9586 54.189C41.9582 54.1461 41.9664 54.1035 41.9826 54.0637C41.9988 54.0239 42.0227 53.9877 42.053 53.9572C42.0833 53.9267 42.1193 53.9025 42.1589 53.8859C42.1986 53.8694 42.2411 53.8609 42.2841 53.8609H49.7256C49.8126 53.8609 49.8961 53.8955 49.9576 53.957C50.0192 54.0186 50.0537 54.102 50.0537 54.189C50.0531 54.2743 50.0193 54.3559 49.9595 54.4166C49.8998 54.4774 49.8187 54.5125 49.7335 54.5145Z" fill="white"/>
<path d="M78.5972 84.3096C78.5972 84.3096 79.7483 82.8276 81.2858 82.8276C82.8234 82.8276 84.0566 84.3096 84.0566 84.3096H82.9319C82.5218 83.7774 81.9402 83.4034 81.2858 83.2511C80.2485 83.0499 79.5869 84.3096 79.5869 84.3096H78.5972Z" fill="#263238"/>
<path d="M88.8041 84.0503H75.3236C74.6017 84.0503 74.0164 84.6356 74.0164 85.3576V94.9056C74.0164 95.6276 74.6017 96.2129 75.3236 96.2129H88.8041C89.5261 96.2129 90.1114 95.6276 90.1114 94.9056V85.3576C90.1114 84.6356 89.5261 84.0503 88.8041 84.0503Z" fill="#263238"/>
<path opacity="0.2" d="M90.1114 85.4423V94.8209C90.1114 95.0036 90.0753 95.1844 90.0054 95.3532C89.9354 95.5219 89.8328 95.6752 89.7035 95.8042C89.5742 95.9333 89.4207 96.0356 89.2519 96.1052C89.083 96.1749 88.9021 96.2106 88.7194 96.2102H75.411C75.2283 96.2106 75.0473 96.1749 74.8785 96.1052C74.7096 96.0356 74.5561 95.9333 74.4268 95.8042C74.2975 95.6752 74.195 95.5219 74.125 95.3532C74.055 95.1844 74.019 95.0036 74.019 94.8209V85.4423C74.019 85.0731 74.1656 84.719 74.4267 84.458C74.6877 84.1969 75.0418 84.0503 75.411 84.0503H88.7194C89.0886 84.0503 89.4426 84.1969 89.7037 84.458C89.9647 84.719 90.1114 85.0731 90.1114 85.4423Z" fill="white"/>
<path opacity="0.2" d="M89.0713 85.4423V94.8209C89.0714 95.0036 89.0353 95.1844 88.9653 95.3532C88.8954 95.5219 88.7928 95.6752 88.6635 95.8042C88.5342 95.9333 88.3807 96.0356 88.2119 96.1052C88.043 96.1749 87.8621 96.2106 87.6794 96.2102H75.411C75.2283 96.2106 75.0473 96.1749 74.8785 96.1052C74.7096 96.0356 74.5561 95.9333 74.4268 95.8042C74.2975 95.6752 74.195 95.5219 74.125 95.3532C74.055 95.1844 74.019 95.0036 74.019 94.8209V85.4423C74.019 85.0731 74.1656 84.719 74.4267 84.458C74.6877 84.1969 75.0418 84.0503 75.411 84.0503H87.6794C88.0486 84.0503 88.4026 84.1969 88.6636 84.458C88.9247 84.719 89.0713 85.0731 89.0713 85.4423Z" fill="white"/>
<path d="M89.3889 84.2223C89.1314 84.3523 88.9151 84.5513 88.7642 84.7971C88.6132 85.0429 88.5336 85.3258 88.5341 85.6143V90.5576C88.5341 90.6399 88.5179 90.7213 88.4863 90.7973C88.4548 90.8732 88.4085 90.9422 88.3503 91.0002C88.292 91.0582 88.2228 91.1042 88.1468 91.1354C88.0707 91.1666 87.9892 91.1825 87.9069 91.1822H74.2677C74.1855 91.1829 74.104 91.1672 74.0279 91.1361C73.9518 91.1049 73.8827 91.059 73.8245 91.0008C73.7664 90.9427 73.7204 90.8736 73.6893 90.7975C73.6582 90.7214 73.6425 90.6399 73.6432 90.5576V85.6143C73.6428 85.4088 73.683 85.2053 73.7615 85.0154C73.84 84.8255 73.9552 84.6529 74.1005 84.5076C74.2458 84.3623 74.4183 84.2471 74.6082 84.1686C74.7982 84.0902 75.0017 84.0499 75.2072 84.0503H88.7194C88.9535 84.0504 89.1837 84.1096 89.3889 84.2223Z" fill="#263238"/>
<path opacity="0.2" d="M89.3889 84.2223C89.1314 84.3523 88.9151 84.5513 88.7642 84.7971C88.6132 85.0429 88.5336 85.3258 88.5341 85.6143V90.5576C88.5341 90.6399 88.5179 90.7213 88.4863 90.7973C88.4548 90.8732 88.4085 90.9422 88.3503 91.0002C88.292 91.0582 88.2228 91.1042 88.1468 91.1354C88.0707 91.1666 87.9892 91.1825 87.9069 91.1822H74.2677C74.1855 91.1829 74.104 91.1672 74.0279 91.1361C73.9518 91.1049 73.8827 91.059 73.8245 91.0008C73.7664 90.9427 73.7204 90.8736 73.6893 90.7975C73.6582 90.7214 73.6425 90.6399 73.6432 90.5576V85.6143C73.6428 85.4088 73.683 85.2053 73.7615 85.0154C73.84 84.8255 73.9552 84.6529 74.1005 84.5076C74.2458 84.3623 74.4183 84.2471 74.6082 84.1686C74.7982 84.0902 75.0017 84.0499 75.2072 84.0503H88.7194C88.9535 84.0504 89.1837 84.1096 89.3889 84.2223Z" fill="white"/>
<path d="M80.0076 90.8434H81.0477V92.4498C81.0477 92.5141 81.035 92.5777 81.0104 92.6371C80.9858 92.6965 80.9497 92.7505 80.9043 92.796C80.8588 92.8414 80.8048 92.8775 80.7454 92.9021C80.686 92.9267 80.6224 92.9393 80.5581 92.9393H80.4946C80.4303 92.9393 80.3666 92.9267 80.3072 92.9021C80.2478 92.8775 80.1939 92.8414 80.1484 92.796C80.1029 92.7505 80.0669 92.6965 80.0423 92.6371C80.0177 92.5777 80.005 92.5141 80.005 92.4498V90.8434H80.0076Z" fill="#263238"/>
<path d="M81.1139 90.8434H79.9468C79.8518 90.8434 79.7748 90.9205 79.7748 91.0155V92.0078C79.7748 92.1028 79.8518 92.1798 79.9468 92.1798H81.1139C81.2089 92.1798 81.2859 92.1028 81.2859 92.0078V91.0155C81.2859 90.9205 81.2089 90.8434 81.1139 90.8434Z" fill="white"/>
<path d="M81.0476 89.7955H80.0076V91.8914H81.0476V89.7955Z" fill="#263238"/>
<path d="M109.112 48.0972L107.569 49.6426C107.331 49.8808 107.49 51.3072 107.569 51.7835C107.649 52.2599 109.557 53.1305 109.673 53.0511C109.79 52.9717 110.147 51.3204 110.147 51.3204L108.559 50.5053L109.671 49.206L109.112 48.0972Z" fill="#9F5B53"/>
<path d="M108.956 36.9799C109.866 37.3477 113.397 44.3446 113.412 45.6096C113.428 46.8745 108.956 50.2248 108.956 50.2248L107.972 49.2827C107.972 49.2827 111.229 45.4481 111.332 44.9586C111.436 44.469 107.77 39.6659 107.77 39.6659L108.956 36.9799Z" fill="#022162"/>
<path opacity="0.4" d="M113.412 45.6096C113.428 46.8746 108.956 50.2248 108.956 50.2248L107.972 49.2827C107.972 49.2827 111.229 45.4482 111.332 44.9586C111.388 44.694 110.396 43.2465 109.446 41.9286C108.591 40.7457 107.77 39.6712 107.77 39.6712L108.117 38.8773L108.956 36.972C109.866 37.3478 113.397 44.3447 113.412 45.6096Z" fill="white"/>
<path d="M108.157 48.6899L109.52 50.2248L108.956 50.6429L107.77 49.3171L108.157 48.6899Z" fill="#022162"/>
<path opacity="0.2" d="M109.446 41.9286C108.591 40.7457 107.77 39.6712 107.77 39.6712L108.117 38.8773C108.181 38.8403 108.244 38.8059 108.313 38.7715C108.313 38.7794 109.535 40.1608 109.446 41.9286Z" fill="black"/>
<path d="M101.379 31.1632C101.181 31.4903 100.944 31.7924 100.673 32.063C100.734 32.1596 100.82 32.2374 100.922 32.2879C101.025 32.3383 101.139 32.3594 101.252 32.3488L101.379 31.1632Z" fill="#A24E3F"/>
<path d="M101.155 30.8112C101.139 30.9965 101.226 31.1552 101.35 31.1632C101.475 31.1711 101.586 31.0309 101.599 30.8456C101.612 30.6604 101.525 30.5042 101.403 30.4937C101.282 30.4831 101.168 30.626 101.155 30.8112Z" fill="#2E353A"/>
<path d="M101.364 33.0395C101.387 33.1293 101.415 33.2177 101.448 33.3041C101.629 33.8119 101.959 34.2529 102.396 34.5691C102.506 34.6479 102.622 34.7195 102.742 34.7834C103.06 34.9525 103.411 35.0483 103.771 35.0639C104.13 35.0794 104.489 35.0144 104.82 34.8734C105.119 34.7468 105.389 34.5604 105.614 34.3256C106.574 33.3544 106.55 32.235 106.659 30.3376C106.691 29.8949 106.609 29.4515 106.421 29.0494C106.233 28.6473 105.946 28.2998 105.586 28.04C105.226 27.7802 104.806 27.6166 104.365 27.5648C103.925 27.5131 103.478 27.5748 103.068 27.7441C101.207 28.5116 100.953 31.3326 101.364 33.0395Z" fill="#9F5B53"/>
<path opacity="0.2" d="M102.396 34.577C102.506 34.6559 102.622 34.7275 102.742 34.7913C103.06 34.9604 103.411 35.0562 103.771 35.0718C104.13 35.0874 104.489 35.0223 104.82 34.8813C104.735 34.6532 104.621 34.437 104.481 34.2382C103.768 34.1481 103.044 34.2657 102.396 34.577Z" fill="black"/>
<path d="M106.214 37.0487C105.278 37.8982 102.989 37.578 102.989 37.578C102.989 37.578 101.559 37.189 101.861 36.7417C102.703 36.6015 103.11 36.2125 103.28 35.707C103.37 35.3953 103.399 35.0691 103.364 34.7464C103.349 34.5689 103.325 34.3922 103.293 34.2171L106.122 32.1212C105.751 33.4894 105.299 36.0325 106.214 37.0487Z" fill="#9F5B53"/>
<path d="M103.608 26.9344C103.608 26.9344 103.108 26.6274 102.25 27.4345C101.53 28.1147 102.25 28.6598 101.819 29.5331C101.387 30.4064 101.972 31.2664 101.972 31.2664C101.972 31.2664 102.388 32.1609 103.113 32.1053C103.113 32.1053 103.703 32.8198 103.608 33.5608C103.512 34.3018 104.576 34.884 106.024 34.8681C107.471 34.8522 106.892 33.9445 106.892 33.9445C107.311 33.4609 107.651 32.9132 107.897 32.3223C108.189 31.6028 108.329 30.8306 108.308 30.0544C108.321 29.6515 108.254 29.25 108.11 28.8733C107.967 28.4966 107.75 28.1523 107.471 27.8606C106.505 26.773 104.208 26.2252 103.608 26.9344Z" fill="#263238"/>
<path d="M103.473 31.6925C103.437 31.8712 103.362 32.0397 103.253 32.1857C103.144 32.3318 103.004 32.4517 102.843 32.5367C102.457 32.7008 102.203 32.1556 102.258 31.584C102.311 31.0786 102.573 30.3667 102.986 30.462C103.399 30.5572 103.608 31.1818 103.473 31.6925Z" fill="#9F5B53"/>
<path d="M101.967 28.9588C101.967 28.9588 100.549 27.6356 101.194 26.204C101.84 24.7723 101.967 26.204 101.967 26.204C101.967 26.204 103.039 25.3518 103.608 25.5688C104.177 25.7858 103.248 26.2754 103.248 26.2754C103.248 26.2754 107.289 25.553 107.649 28.0511C108.009 30.5492 101.967 28.9588 101.967 28.9588Z" fill="#263238"/>
<path d="M101.615 30.3561C101.6 30.3565 101.585 30.3534 101.572 30.3469C101.559 30.3405 101.547 30.3309 101.538 30.3191C101.516 30.2861 101.488 30.258 101.455 30.2366C101.421 30.2152 101.384 30.2009 101.345 30.1947C101.32 30.1954 101.296 30.1864 101.278 30.1696C101.26 30.1528 101.249 30.1295 101.247 30.1047C101.246 30.0803 101.254 30.0562 101.269 30.0375C101.285 30.0188 101.308 30.0068 101.332 30.0042C101.403 30.006 101.473 30.0251 101.535 30.0596C101.597 30.0942 101.65 30.1432 101.689 30.2026C101.697 30.2125 101.703 30.2238 101.706 30.236C101.71 30.2481 101.711 30.2609 101.709 30.2734C101.708 30.286 101.704 30.2981 101.698 30.3092C101.692 30.3202 101.683 30.3298 101.673 30.3376C101.657 30.3504 101.636 30.3569 101.615 30.3561Z" fill="#2E353A"/>
<path d="M106.445 36.8582L106.026 35.7785C106.026 35.7785 103.205 35.2492 102.25 36.6412C101.295 38.0332 106.445 36.8582 106.445 36.8582Z" fill="#022162"/>
<path d="M98.9184 94.3949L96.9389 94.6013L96.8383 93.4554L96.5684 90.3354L98.5479 90.1263L98.8469 93.5719L98.9184 94.3949Z" fill="#9F5B53"/>
<path d="M108.795 94.1434H106.876L106.86 93.7094L106.857 93.6565L106.76 90.8752L106.757 90.8196L106.717 89.7532H108.638L108.795 94.1434Z" fill="#9F5B53"/>
<path opacity="0.2" d="M98.5479 90.1263L98.8469 93.5719L96.8383 93.4554L96.5684 90.3354L98.5479 90.1263Z" fill="black"/>
<path opacity="0.2" d="M108.781 93.9H108.779L106.86 93.6566H106.857L106.757 90.9705H106.759L108.683 91.1267L108.779 93.8153L108.781 93.9Z" fill="black"/>
<path d="M106.611 94.027H108.94C108.978 94.0272 109.015 94.0405 109.045 94.0645C109.075 94.0885 109.096 94.1219 109.104 94.1593L109.483 95.8688C109.497 95.9421 109.483 96.0184 109.442 96.0808C109.4 96.1433 109.336 96.187 109.263 96.2023C109.243 96.205 109.222 96.205 109.202 96.2023C108.448 96.189 107.9 96.1414 106.953 96.1414C106.371 96.1414 104.611 96.2049 103.806 96.2049C103.002 96.2049 102.896 95.411 103.224 95.3343C104.703 95.014 105.815 94.5668 106.288 94.1434C106.378 94.0654 106.493 94.0238 106.611 94.027Z" fill="#263238"/>
<path d="M96.7299 93.9662H99.0613C99.0991 93.967 99.1356 93.9805 99.1648 94.0045C99.1941 94.0285 99.2145 94.0616 99.2227 94.0985L99.6012 95.8054C99.6169 95.8787 99.6028 95.9553 99.5622 96.0183C99.5215 96.0813 99.4575 96.1256 99.3842 96.1415H99.3206C98.5664 96.1282 98.0186 96.0806 97.0713 96.0806C96.4891 96.0806 94.7293 96.1415 93.9248 96.1415C93.1203 96.1415 93.0144 95.3476 93.3426 95.2735C94.8219 94.9533 95.936 94.506 96.407 94.08C96.4972 94.004 96.612 93.9635 96.7299 93.9662Z" fill="#263238"/>
<path d="M96.3885 93.167H99.2016C99.2016 93.167 98.9713 68.953 102.015 60.7731C102.229 63.4777 102.47 66.2828 102.705 68.6195C102.856 70.0671 103.002 71.3082 103.139 72.2556C104.026 78.3422 106.262 93.4104 106.262 93.4104H109.041C109.041 93.4104 108.71 78.9852 108.382 72.9886C108.017 66.4839 107.852 52.1805 107.852 50.9605H97.6694C96.7008 56.0838 94.2159 76.5771 96.3885 93.167Z" fill="#263238"/>
<path opacity="0.2" d="M102.015 60.7625C102.229 63.4671 102.47 66.2775 102.705 68.6142C103.052 65.2401 103.478 62.8346 103.478 62.8346C103.478 62.8346 103.875 62.5064 104.968 60.7625C106.061 59.0186 104.968 55.7609 104.968 55.7609C105.002 58.7857 102.015 60.7625 102.015 60.7625Z" fill="black"/>
<path d="M96.0709 92.3757L96.2085 93.1669H99.5323V92.4365L96.0709 92.3757Z" fill="#022162"/>
<path d="M105.942 92.6801L106.262 93.4131H109.049L109.231 92.6801H105.942Z" fill="#022162"/>
<path d="M108.099 51.638C108.099 51.638 107.707 49.3304 108.289 42.6008C108.44 40.8674 108.654 38.9832 108.956 36.98C108.956 36.98 103.422 35.7574 99.5615 36.98C99.5615 36.98 99.4027 37.8003 99.1857 39.195C99.0507 40.0338 98.8972 41.0818 98.7438 42.2859L98.7279 42.4208C98.3442 45.353 97.6138 47.5256 97.5397 51.4634L108.099 51.638Z" fill="#022162"/>
<path opacity="0.4" d="M108.289 42.6061C107.707 49.3357 108.099 51.6433 108.099 51.6433L97.537 51.4713C97.6032 47.9834 98.1828 45.8796 98.5823 43.4053C98.6326 43.0877 98.6829 42.7622 98.7253 42.4288L98.7411 42.2938C98.8682 41.2961 99.0058 40.407 99.1143 39.6475C99.1354 39.4913 99.1593 39.3405 99.1831 39.1976C99.4001 37.803 99.5588 36.9826 99.5588 36.9826C103.42 35.76 108.953 36.9826 108.953 36.9826C108.654 38.9832 108.443 40.8674 108.289 42.6061Z" fill="white"/>
<path opacity="0.2" d="M99.7493 39.7665C99.7493 39.7665 99.654 42.1059 98.5823 43.4C98.6326 43.0824 98.6828 42.7569 98.7252 42.4235L98.7411 42.2885C98.8681 41.2908 99.0057 40.4017 99.1142 39.6422C99.3295 39.6625 99.5422 39.7042 99.7493 39.7665Z" fill="black"/>
<path d="M97.6561 35.2439L98.4368 34.2621C98.5184 34.0402 98.6278 33.8295 98.7623 33.635C98.8761 33.5344 100.295 32.841 100.39 32.8834C100.653 33.3224 100.89 33.7766 101.099 34.2436C101.173 34.3971 100.04 34.9343 99.7388 35.011C99.5477 35.0555 99.3477 35.0417 99.1645 34.9714L98.5506 35.9664" fill="#9F5B53"/>
<path d="M99.5959 36.9904C98.802 37.3133 97.9234 38.1998 96.6849 39.4621L98.847 35.5588L97.7302 34.8998C97.7302 34.8998 93.2552 41.1584 93.2552 42.0264C93.2552 42.8944 94.4302 43.5745 98.9184 41.2325C98.9184 41.2325 100.112 39.5256 100.112 38.5227C100.136 37.9656 99.9521 37.4195 99.5959 36.9904Z" fill="#022162"/>
<path opacity="0.4" d="M99.5959 36.9904C98.802 37.3133 97.9234 38.1998 96.6849 39.4621L98.847 35.5588L97.7302 34.8998C97.7302 34.8998 93.2552 41.1584 93.2552 42.0264C93.2552 42.8944 94.4302 43.5745 98.9184 41.2325C98.9184 41.2325 100.112 39.5256 100.112 38.5227C100.136 37.9656 99.9521 37.4195 99.5959 36.9904Z" fill="white"/>
<path d="M97.8466 34.6696L99.1486 35.4027L98.8813 36.1701L97.1586 35.2121L97.8466 34.6696Z" fill="#022162"/>
</svg>
